M48
; DRILL file {KiCad 9.0.7} date 2026-03-12T11:25:29-0400
; FORMAT={-:-/ absolute / metric / decimal}
; #@! TF.CreationDate,2026-03-12T11:25:29-04:00
; #@! TF.GenerationSoftware,Kicad,Pcbnew,9.0.7
; #@! TF.FileFunction,Plated,1,2,PTH
FMAT,2
METRIC
; #@! TA.AperFunction,Plated,PTH,ComponentDrill
T1C0.800
; #@! TA.AperFunction,Plated,PTH,ComponentDrill
T2C0.900
; #@! TA.AperFunction,Plated,PTH,ComponentDrill
T3C1.000
; #@! TA.AperFunction,Plated,PTH,ComponentDrill
T4C1.100
%
G90
G05
T1
X79.96Y-77.96
X79.96Y-83.04
X79.96Y-91.96
X79.96Y-97.04
X79.96Y-105.96
X79.96Y-111.04
X82.5Y-80.5
X82.5Y-94.5
X82.5Y-108.5
X93.0Y-79.0
X93.0Y-84.0
X93.0Y-89.0
X93.0Y-94.0
X100.62Y-79.0
X100.62Y-84.0
X100.62Y-89.0
X100.62Y-94.0
T2
X92.46Y-102.5
X92.46Y-112.5
X95.0Y-102.5
X95.0Y-112.5
T3
X87.5Y-75.9
X87.5Y-78.44
X87.5Y-80.98
X87.5Y-83.52
X87.5Y-86.06
X87.5Y-88.6
X87.5Y-91.14
X87.5Y-93.68
X87.5Y-96.22
X87.5Y-98.76
X87.5Y-101.3
X87.5Y-103.84
X87.5Y-106.38
X87.5Y-108.92
X87.5Y-111.46
X87.5Y-114.0
X100.33Y-101.3
X100.33Y-103.84
X100.33Y-106.38
X100.33Y-108.92
X100.33Y-111.46
X100.33Y-114.0
X113.03Y-101.3
X113.03Y-103.84
X113.03Y-106.38
X113.03Y-108.92
X113.03Y-111.46
X113.03Y-114.0
X117.98Y-75.9
X117.98Y-78.44
X117.98Y-80.98
X117.98Y-83.52
X117.98Y-86.06
X117.98Y-88.6
X117.98Y-91.14
X117.98Y-93.68
X117.98Y-96.22
X117.98Y-98.76
X117.98Y-101.3
X117.98Y-103.84
X117.98Y-106.38
X117.98Y-108.92
X117.98Y-111.46
X117.98Y-114.0
T4
X107.5Y-79.0
X107.5Y-92.0
X112.5Y-79.0
X112.5Y-92.0
M30
