%TF.GenerationSoftware,KiCad,Pcbnew,9.0.7*%
%TF.CreationDate,2026-03-12T11:24:45-04:00*%
%TF.ProjectId,Projet-Mi-Session,50726f6a-6574-42d4-9d69-2d5365737369,rev?*%
%TF.SameCoordinates,Original*%
%TF.FileFunction,Copper,L2,Bot*%
%TF.FilePolarity,Positive*%
%FSLAX46Y46*%
G04 Gerber Fmt 4.6, Leading zero omitted, Abs format (unit mm)*
G04 Created by KiCad (PCBNEW 9.0.7) date 2026-03-12 11:24:45*
%MOMM*%
%LPD*%
G01*
G04 APERTURE LIST*
%TA.AperFunction,ComponentPad*%
%ADD10R,1.650000X1.650000*%
%TD*%
%TA.AperFunction,ComponentPad*%
%ADD11C,1.650000*%
%TD*%
%TA.AperFunction,ComponentPad*%
%ADD12C,1.440000*%
%TD*%
%TA.AperFunction,ComponentPad*%
%ADD13C,1.600000*%
%TD*%
%TA.AperFunction,ComponentPad*%
%ADD14R,1.800000X1.800000*%
%TD*%
%TA.AperFunction,ComponentPad*%
%ADD15C,1.800000*%
%TD*%
%TA.AperFunction,ComponentPad*%
%ADD16R,1.700000X1.700000*%
%TD*%
%TA.AperFunction,ComponentPad*%
%ADD17C,1.700000*%
%TD*%
%TA.AperFunction,Conductor*%
%ADD18C,0.400000*%
%TD*%
%TA.AperFunction,Conductor*%
%ADD19C,0.200000*%
%TD*%
G04 APERTURE END LIST*
D10*
%TO.P,SW2,1,1*%
%TO.N,Net-(J2-Pin_13)*%
X107500000Y-92000000D03*
D11*
%TO.P,SW2,2,2*%
%TO.N,GND*%
X112500000Y-92000000D03*
%TD*%
D12*
%TO.P,RV2,1,1*%
%TO.N,GND*%
X79960000Y-111040000D03*
%TO.P,RV2,2,2*%
%TO.N,Net-(J2-Pin_2)*%
X82500000Y-108500000D03*
%TO.P,RV2,3,3*%
%TO.N,+3.3V*%
X79960000Y-105960000D03*
%TD*%
%TO.P,RV4,1,1*%
%TO.N,GND*%
X79960000Y-83040000D03*
%TO.P,RV4,2,2*%
%TO.N,Net-(J2-Pin_4)*%
X82500000Y-80500000D03*
%TO.P,RV4,3,3*%
%TO.N,+3.3V*%
X79960000Y-77960000D03*
%TD*%
D13*
%TO.P,R1,1*%
%TO.N,+3.3V*%
X93000000Y-79000000D03*
%TO.P,R1,2*%
%TO.N,Net-(J2-Pin_14)*%
X100620000Y-79000000D03*
%TD*%
D12*
%TO.P,RV3,1,1*%
%TO.N,GND*%
X79960000Y-97040000D03*
%TO.P,RV3,2,2*%
%TO.N,Net-(J2-Pin_3)*%
X82500000Y-94500000D03*
%TO.P,RV3,3,3*%
%TO.N,+3.3V*%
X79960000Y-91960000D03*
%TD*%
D14*
%TO.P,D1,1,K*%
%TO.N,GND*%
X92460000Y-102500000D03*
D15*
%TO.P,D1,2,A*%
%TO.N,Net-(D1-A)*%
X95000000Y-102500000D03*
%TD*%
D16*
%TO.P,J4,1,Pin_1*%
%TO.N,unconnected-(J4-Pin_1-Pad1)*%
X100330000Y-114000000D03*
D17*
%TO.P,J4,2,Pin_2*%
%TO.N,unconnected-(J4-Pin_2-Pad2)*%
X100330000Y-111460000D03*
%TO.P,J4,3,Pin_3*%
%TO.N,unconnected-(J4-Pin_3-Pad3)*%
X100330000Y-108920000D03*
%TO.P,J4,4,Pin_4*%
%TO.N,unconnected-(J4-Pin_4-Pad4)*%
X100330000Y-106380000D03*
%TO.P,J4,5,Pin_5*%
%TO.N,unconnected-(J4-Pin_5-Pad5)*%
X100330000Y-103840000D03*
%TO.P,J4,6,Pin_6*%
%TO.N,unconnected-(J4-Pin_6-Pad6)*%
X100330000Y-101300000D03*
%TD*%
D14*
%TO.P,D2,1,K*%
%TO.N,GND*%
X92460000Y-112500000D03*
D15*
%TO.P,D2,2,A*%
%TO.N,Net-(D2-A)*%
X95000000Y-112500000D03*
%TD*%
D16*
%TO.P,J3,1,Pin_1*%
%TO.N,+3.3V*%
X113030000Y-114000000D03*
D17*
%TO.P,J3,2,Pin_2*%
%TO.N,unconnected-(J3-Pin_2-Pad2)*%
X113030000Y-111460000D03*
%TO.P,J3,3,Pin_3*%
%TO.N,GND*%
X113030000Y-108920000D03*
%TO.P,J3,4,Pin_4*%
%TO.N,Net-(J1-Pin_5)*%
X113030000Y-106380000D03*
%TO.P,J3,5,Pin_5*%
%TO.N,Net-(J1-Pin_6)*%
X113030000Y-103840000D03*
%TO.P,J3,6,Pin_6*%
%TO.N,unconnected-(J3-Pin_6-Pad6)*%
X113030000Y-101300000D03*
%TD*%
D13*
%TO.P,R4,1*%
%TO.N,Net-(J2-Pin_5)*%
X93000000Y-94000000D03*
%TO.P,R4,2*%
%TO.N,Net-(D2-A)*%
X100620000Y-94000000D03*
%TD*%
D10*
%TO.P,SW1,1,1*%
%TO.N,Net-(J2-Pin_14)*%
X107500000Y-79000000D03*
D11*
%TO.P,SW1,2,2*%
%TO.N,GND*%
X112500000Y-79000000D03*
%TD*%
D13*
%TO.P,R2,1*%
%TO.N,+3.3V*%
X93000000Y-84000000D03*
%TO.P,R2,2*%
%TO.N,Net-(J2-Pin_13)*%
X100620000Y-84000000D03*
%TD*%
%TO.P,R3,1*%
%TO.N,Net-(J2-Pin_8)*%
X93000000Y-89000000D03*
%TO.P,R3,2*%
%TO.N,Net-(D1-A)*%
X100620000Y-89000000D03*
%TD*%
D16*
%TO.P,J2,1,Pin_1*%
%TO.N,unconnected-(J2-Pin_1-Pad1)*%
X87500000Y-114000000D03*
D17*
%TO.P,J2,2,Pin_2*%
%TO.N,Net-(J2-Pin_2)*%
X87500000Y-111460000D03*
%TO.P,J2,3,Pin_3*%
%TO.N,Net-(J2-Pin_3)*%
X87500000Y-108920000D03*
%TO.P,J2,4,Pin_4*%
%TO.N,Net-(J2-Pin_4)*%
X87500000Y-106380000D03*
%TO.P,J2,5,Pin_5*%
%TO.N,Net-(J2-Pin_5)*%
X87500000Y-103840000D03*
%TO.P,J2,6,Pin_6*%
%TO.N,unconnected-(J2-Pin_6-Pad6)*%
X87500000Y-101300000D03*
%TO.P,J2,7,Pin_7*%
%TO.N,unconnected-(J2-Pin_7-Pad7)*%
X87500000Y-98760000D03*
%TO.P,J2,8,Pin_8*%
%TO.N,Net-(J2-Pin_8)*%
X87500000Y-96220000D03*
%TO.P,J2,9,Pin_9*%
%TO.N,unconnected-(J2-Pin_9-Pad9)*%
X87500000Y-93680000D03*
%TO.P,J2,10,Pin_10*%
%TO.N,unconnected-(J2-Pin_10-Pad10)*%
X87500000Y-91140000D03*
%TO.P,J2,11,Pin_11*%
%TO.N,unconnected-(J2-Pin_11-Pad11)*%
X87500000Y-88600000D03*
%TO.P,J2,12,Pin_12*%
%TO.N,unconnected-(J2-Pin_12-Pad12)*%
X87500000Y-86060000D03*
%TO.P,J2,13,Pin_13*%
%TO.N,Net-(J2-Pin_13)*%
X87500000Y-83520000D03*
%TO.P,J2,14,Pin_14*%
%TO.N,Net-(J2-Pin_14)*%
X87500000Y-80980000D03*
%TO.P,J2,15,Pin_15*%
%TO.N,GND*%
X87500000Y-78440000D03*
%TO.P,J2,16,Pin_16*%
%TO.N,+3.3V*%
X87500000Y-75900000D03*
%TD*%
D16*
%TO.P,J1,1,Pin_1*%
%TO.N,unconnected-(J1-Pin_1-Pad1)*%
X117980000Y-114000000D03*
D17*
%TO.P,J1,2,Pin_2*%
%TO.N,unconnected-(J1-Pin_2-Pad2)*%
X117980000Y-111460000D03*
%TO.P,J1,3,Pin_3*%
%TO.N,+3.3V*%
X117980000Y-108920000D03*
%TO.P,J1,4,Pin_4*%
%TO.N,GND*%
X117980000Y-106380000D03*
%TO.P,J1,5,Pin_5*%
%TO.N,Net-(J1-Pin_5)*%
X117980000Y-103840000D03*
%TO.P,J1,6,Pin_6*%
%TO.N,Net-(J1-Pin_6)*%
X117980000Y-101300000D03*
%TO.P,J1,7,Pin_7*%
%TO.N,unconnected-(J1-Pin_7-Pad7)*%
X117980000Y-98760000D03*
%TO.P,J1,8,Pin_8*%
%TO.N,unconnected-(J1-Pin_8-Pad8)*%
X117980000Y-96220000D03*
%TO.P,J1,9,Pin_9*%
%TO.N,unconnected-(J1-Pin_9-Pad9)*%
X117980000Y-93680000D03*
%TO.P,J1,10,Pin_10*%
%TO.N,unconnected-(J1-Pin_10-Pad10)*%
X117980000Y-91140000D03*
%TO.P,J1,11,Pin_11*%
%TO.N,unconnected-(J1-Pin_11-Pad11)*%
X117980000Y-88600000D03*
%TO.P,J1,12,Pin_12*%
%TO.N,unconnected-(J1-Pin_12-Pad12)*%
X117980000Y-86060000D03*
%TO.P,J1,13,Pin_13*%
%TO.N,unconnected-(J1-Pin_13-Pad13)*%
X117980000Y-83520000D03*
%TO.P,J1,14,Pin_14*%
%TO.N,unconnected-(J1-Pin_14-Pad14)*%
X117980000Y-80980000D03*
%TO.P,J1,15,Pin_15*%
%TO.N,unconnected-(J1-Pin_15-Pad15)*%
X117980000Y-78440000D03*
%TO.P,J1,16,Pin_16*%
%TO.N,unconnected-(J1-Pin_16-Pad16)*%
X117980000Y-75900000D03*
%TD*%
D18*
%TO.N,GND*%
X87500000Y-78440000D02*
X82900000Y-83040000D01*
X82900000Y-83040000D02*
X79960000Y-83040000D01*
D19*
%TO.N,Net-(D2-A)*%
X97000000Y-112500000D02*
X95000000Y-112500000D01*
X97500000Y-112000000D02*
X97000000Y-112500000D01*
X97500000Y-97120000D02*
X97500000Y-112000000D01*
X100620000Y-94000000D02*
X97500000Y-97120000D01*
%TO.N,Net-(J1-Pin_5)*%
X115570000Y-103840000D02*
X117980000Y-103840000D01*
X113030000Y-106380000D02*
X115570000Y-103840000D01*
%TO.N,Net-(J1-Pin_6)*%
X113030000Y-103840000D02*
X115570000Y-101300000D01*
X115570000Y-101300000D02*
X117980000Y-101300000D01*
D18*
%TO.N,+3.3V*%
X93000000Y-84000000D02*
X93000000Y-79000000D01*
%TD*%
%TA.AperFunction,Conductor*%
%TO.N,GND*%
G36*
X123442539Y-71520185D02*
G01*
X123488294Y-71572989D01*
X123499500Y-71624500D01*
X123499500Y-121875500D01*
X123479815Y-121942539D01*
X123427011Y-121988294D01*
X123375500Y-121999500D01*
X71124500Y-121999500D01*
X71057461Y-121979815D01*
X71011706Y-121927011D01*
X71000500Y-121875500D01*
X71000500Y-110943984D01*
X78740000Y-110943984D01*
X78740000Y-111136015D01*
X78770040Y-111325684D01*
X78829383Y-111508321D01*
X78916561Y-111679415D01*
X78937798Y-111708646D01*
X79560000Y-111086445D01*
X79560000Y-111092661D01*
X79587259Y-111194394D01*
X79639920Y-111285606D01*
X79714394Y-111360080D01*
X79805606Y-111412741D01*
X79907339Y-111440000D01*
X79913554Y-111440000D01*
X79291351Y-112062200D01*
X79291352Y-112062201D01*
X79320577Y-112083434D01*
X79491678Y-112170616D01*
X79674315Y-112229959D01*
X79863985Y-112260000D01*
X80056015Y-112260000D01*
X80245684Y-112229959D01*
X80428321Y-112170616D01*
X80599419Y-112083436D01*
X80628646Y-112062201D01*
X80628646Y-112062200D01*
X80006447Y-111440000D01*
X80012661Y-111440000D01*
X80114394Y-111412741D01*
X80205606Y-111360080D01*
X80280080Y-111285606D01*
X80332741Y-111194394D01*
X80360000Y-111092661D01*
X80360000Y-111086446D01*
X80982200Y-111708646D01*
X80982201Y-111708646D01*
X81003436Y-111679419D01*
X81090616Y-111508321D01*
X81149959Y-111325684D01*
X81180000Y-111136015D01*
X81180000Y-110943984D01*
X81149959Y-110754315D01*
X81090616Y-110571678D01*
X81003434Y-110400577D01*
X80982201Y-110371352D01*
X80982200Y-110371351D01*
X80360000Y-110993552D01*
X80360000Y-110987339D01*
X80332741Y-110885606D01*
X80280080Y-110794394D01*
X80205606Y-110719920D01*
X80114394Y-110667259D01*
X80012661Y-110640000D01*
X80006447Y-110640000D01*
X80628646Y-110017798D01*
X80599415Y-109996561D01*
X80428321Y-109909383D01*
X80245684Y-109850040D01*
X80056015Y-109820000D01*
X79863985Y-109820000D01*
X79674315Y-109850040D01*
X79491678Y-109909383D01*
X79320578Y-109996564D01*
X79291352Y-110017798D01*
X79291351Y-110017798D01*
X79913554Y-110640000D01*
X79907339Y-110640000D01*
X79805606Y-110667259D01*
X79714394Y-110719920D01*
X79639920Y-110794394D01*
X79587259Y-110885606D01*
X79560000Y-110987339D01*
X79560000Y-110993553D01*
X78937798Y-110371351D01*
X78937798Y-110371352D01*
X78916564Y-110400578D01*
X78829383Y-110571678D01*
X78770040Y-110754315D01*
X78740000Y-110943984D01*
X71000500Y-110943984D01*
X71000500Y-108399484D01*
X81479500Y-108399484D01*
X81479500Y-108600515D01*
X81518715Y-108797661D01*
X81518718Y-108797673D01*
X81595640Y-108983381D01*
X81595647Y-108983394D01*
X81707325Y-109150530D01*
X81707328Y-109150534D01*
X81849465Y-109292671D01*
X81849469Y-109292674D01*
X82016605Y-109404352D01*
X82016618Y-109404359D01*
X82202326Y-109481281D01*
X82202331Y-109481283D01*
X82399484Y-109520499D01*
X82399488Y-109520500D01*
X82399489Y-109520500D01*
X82600512Y-109520500D01*
X82600513Y-109520499D01*
X82797669Y-109481283D01*
X82983388Y-109404356D01*
X83150531Y-109292674D01*
X83292674Y-109150531D01*
X83404356Y-108983388D01*
X83481283Y-108797669D01*
X83520500Y-108600511D01*
X83520500Y-108399489D01*
X83481283Y-108202331D01*
X83468098Y-108170499D01*
X83404359Y-108016618D01*
X83404352Y-108016605D01*
X83292674Y-107849469D01*
X83292671Y-107849465D01*
X83150534Y-107707328D01*
X83150530Y-107707325D01*
X82983394Y-107595647D01*
X82983381Y-107595640D01*
X82797673Y-107518718D01*
X82797661Y-107518715D01*
X82600515Y-107479500D01*
X82600511Y-107479500D01*
X82399489Y-107479500D01*
X82399484Y-107479500D01*
X82202338Y-107518715D01*
X82202326Y-107518718D01*
X82016618Y-107595640D01*
X82016605Y-107595647D01*
X81849469Y-107707325D01*
X81849465Y-107707328D01*
X81707328Y-107849465D01*
X81707325Y-107849469D01*
X81595647Y-108016605D01*
X81595640Y-108016618D01*
X81518718Y-108202326D01*
X81518715Y-108202338D01*
X81479500Y-108399484D01*
X71000500Y-108399484D01*
X71000500Y-105859484D01*
X78939500Y-105859484D01*
X78939500Y-106060515D01*
X78978715Y-106257661D01*
X78978718Y-106257673D01*
X79055640Y-106443381D01*
X79055647Y-106443394D01*
X79167325Y-106610530D01*
X79167328Y-106610534D01*
X79309465Y-106752671D01*
X79309469Y-106752674D01*
X79476605Y-106864352D01*
X79476618Y-106864359D01*
X79662326Y-106941281D01*
X79662331Y-106941283D01*
X79859484Y-106980499D01*
X79859488Y-106980500D01*
X79859489Y-106980500D01*
X80060512Y-106980500D01*
X80060513Y-106980499D01*
X80257669Y-106941283D01*
X80443388Y-106864356D01*
X80610531Y-106752674D01*
X80752674Y-106610531D01*
X80864356Y-106443388D01*
X80941283Y-106257669D01*
X80980500Y-106060511D01*
X80980500Y-105859489D01*
X80941283Y-105662331D01*
X80928098Y-105630499D01*
X80864359Y-105476618D01*
X80864352Y-105476605D01*
X80752674Y-105309469D01*
X80752671Y-105309465D01*
X80610534Y-105167328D01*
X80610530Y-105167325D01*
X80443394Y-105055647D01*
X80443381Y-105055640D01*
X80257673Y-104978718D01*
X80257661Y-104978715D01*
X80060515Y-104939500D01*
X80060511Y-104939500D01*
X79859489Y-104939500D01*
X79859484Y-104939500D01*
X79662338Y-104978715D01*
X79662326Y-104978718D01*
X79476618Y-105055640D01*
X79476605Y-105055647D01*
X79309469Y-105167325D01*
X79309465Y-105167328D01*
X79167328Y-105309465D01*
X79167325Y-105309469D01*
X79055647Y-105476605D01*
X79055640Y-105476618D01*
X78978718Y-105662326D01*
X78978715Y-105662338D01*
X78939500Y-105859484D01*
X71000500Y-105859484D01*
X71000500Y-96943984D01*
X78740000Y-96943984D01*
X78740000Y-97136015D01*
X78770040Y-97325684D01*
X78829383Y-97508321D01*
X78916561Y-97679415D01*
X78937798Y-97708646D01*
X79560000Y-97086445D01*
X79560000Y-97092661D01*
X79587259Y-97194394D01*
X79639920Y-97285606D01*
X79714394Y-97360080D01*
X79805606Y-97412741D01*
X79907339Y-97440000D01*
X79913554Y-97440000D01*
X79291351Y-98062200D01*
X79291352Y-98062201D01*
X79320577Y-98083434D01*
X79491678Y-98170616D01*
X79674315Y-98229959D01*
X79863985Y-98260000D01*
X80056015Y-98260000D01*
X80245684Y-98229959D01*
X80428321Y-98170616D01*
X80599419Y-98083436D01*
X80628646Y-98062201D01*
X80628646Y-98062200D01*
X80006447Y-97440000D01*
X80012661Y-97440000D01*
X80114394Y-97412741D01*
X80205606Y-97360080D01*
X80280080Y-97285606D01*
X80332741Y-97194394D01*
X80360000Y-97092661D01*
X80360000Y-97086446D01*
X80982200Y-97708646D01*
X80982201Y-97708646D01*
X81003436Y-97679419D01*
X81090616Y-97508321D01*
X81149959Y-97325684D01*
X81180000Y-97136015D01*
X81180000Y-96943984D01*
X81149959Y-96754315D01*
X81090616Y-96571678D01*
X81003434Y-96400577D01*
X80982201Y-96371352D01*
X80982200Y-96371351D01*
X80360000Y-96993552D01*
X80360000Y-96987339D01*
X80332741Y-96885606D01*
X80280080Y-96794394D01*
X80205606Y-96719920D01*
X80114394Y-96667259D01*
X80012661Y-96640000D01*
X80006447Y-96640000D01*
X80628646Y-96017798D01*
X80599415Y-95996561D01*
X80428321Y-95909383D01*
X80245684Y-95850040D01*
X80056015Y-95820000D01*
X79863985Y-95820000D01*
X79674315Y-95850040D01*
X79491678Y-95909383D01*
X79320578Y-95996564D01*
X79291352Y-96017798D01*
X79291351Y-96017798D01*
X79913554Y-96640000D01*
X79907339Y-96640000D01*
X79805606Y-96667259D01*
X79714394Y-96719920D01*
X79639920Y-96794394D01*
X79587259Y-96885606D01*
X79560000Y-96987339D01*
X79560000Y-96993553D01*
X78937798Y-96371351D01*
X78937798Y-96371352D01*
X78916564Y-96400578D01*
X78829383Y-96571678D01*
X78770040Y-96754315D01*
X78740000Y-96943984D01*
X71000500Y-96943984D01*
X71000500Y-94399484D01*
X81479500Y-94399484D01*
X81479500Y-94600515D01*
X81518715Y-94797661D01*
X81518718Y-94797673D01*
X81595640Y-94983381D01*
X81595647Y-94983394D01*
X81707325Y-95150530D01*
X81707328Y-95150534D01*
X81849465Y-95292671D01*
X81849469Y-95292674D01*
X82016605Y-95404352D01*
X82016618Y-95404359D01*
X82176296Y-95470499D01*
X82202331Y-95481283D01*
X82399484Y-95520499D01*
X82399488Y-95520500D01*
X82399489Y-95520500D01*
X82600512Y-95520500D01*
X82600513Y-95520499D01*
X82797669Y-95481283D01*
X82983388Y-95404356D01*
X83150531Y-95292674D01*
X83292674Y-95150531D01*
X83404356Y-94983388D01*
X83481283Y-94797669D01*
X83520500Y-94600511D01*
X83520500Y-94399489D01*
X83481283Y-94202331D01*
X83481281Y-94202326D01*
X83404359Y-94016618D01*
X83404352Y-94016605D01*
X83292674Y-93849469D01*
X83292671Y-93849465D01*
X83150534Y-93707328D01*
X83150530Y-93707325D01*
X82983394Y-93595647D01*
X82983381Y-93595640D01*
X82797673Y-93518718D01*
X82797661Y-93518715D01*
X82600515Y-93479500D01*
X82600511Y-93479500D01*
X82399489Y-93479500D01*
X82399484Y-93479500D01*
X82202338Y-93518715D01*
X82202326Y-93518718D01*
X82016618Y-93595640D01*
X82016605Y-93595647D01*
X81849469Y-93707325D01*
X81849465Y-93707328D01*
X81707328Y-93849465D01*
X81707325Y-93849469D01*
X81595647Y-94016605D01*
X81595640Y-94016618D01*
X81518718Y-94202326D01*
X81518715Y-94202338D01*
X81479500Y-94399484D01*
X71000500Y-94399484D01*
X71000500Y-91859484D01*
X78939500Y-91859484D01*
X78939500Y-92060515D01*
X78978715Y-92257661D01*
X78978718Y-92257673D01*
X79055640Y-92443381D01*
X79055647Y-92443394D01*
X79167325Y-92610530D01*
X79167328Y-92610534D01*
X79309465Y-92752671D01*
X79309469Y-92752674D01*
X79476605Y-92864352D01*
X79476618Y-92864359D01*
X79626878Y-92926598D01*
X79662331Y-92941283D01*
X79857614Y-92980127D01*
X79859484Y-92980499D01*
X79859488Y-92980500D01*
X79859489Y-92980500D01*
X80060512Y-92980500D01*
X80060513Y-92980499D01*
X80257669Y-92941283D01*
X80430088Y-92869865D01*
X80443381Y-92864359D01*
X80443381Y-92864358D01*
X80443388Y-92864356D01*
X80610531Y-92752674D01*
X80752674Y-92610531D01*
X80864356Y-92443388D01*
X80941283Y-92257669D01*
X80980500Y-92060511D01*
X80980500Y-91859489D01*
X80941283Y-91662331D01*
X80934703Y-91646446D01*
X80864359Y-91476618D01*
X80864352Y-91476605D01*
X80752674Y-91309469D01*
X80752671Y-91309465D01*
X80610534Y-91167328D01*
X80610530Y-91167325D01*
X80443394Y-91055647D01*
X80443381Y-91055640D01*
X80257673Y-90978718D01*
X80257661Y-90978715D01*
X80060515Y-90939500D01*
X80060511Y-90939500D01*
X79859489Y-90939500D01*
X79859484Y-90939500D01*
X79662338Y-90978715D01*
X79662326Y-90978718D01*
X79476618Y-91055640D01*
X79476605Y-91055647D01*
X79309469Y-91167325D01*
X79309465Y-91167328D01*
X79167328Y-91309465D01*
X79167325Y-91309469D01*
X79055647Y-91476605D01*
X79055640Y-91476618D01*
X78978718Y-91662326D01*
X78978715Y-91662338D01*
X78939500Y-91859484D01*
X71000500Y-91859484D01*
X71000500Y-82943984D01*
X78740000Y-82943984D01*
X78740000Y-83136015D01*
X78770040Y-83325684D01*
X78829383Y-83508321D01*
X78916561Y-83679415D01*
X78937798Y-83708646D01*
X79560000Y-83086445D01*
X79560000Y-83092661D01*
X79587259Y-83194394D01*
X79639920Y-83285606D01*
X79714394Y-83360080D01*
X79805606Y-83412741D01*
X79907339Y-83440000D01*
X79913554Y-83440000D01*
X79291351Y-84062200D01*
X79291352Y-84062201D01*
X79320577Y-84083434D01*
X79491678Y-84170616D01*
X79674315Y-84229959D01*
X79863985Y-84260000D01*
X80056015Y-84260000D01*
X80245684Y-84229959D01*
X80428321Y-84170616D01*
X80599419Y-84083436D01*
X80628646Y-84062201D01*
X80628646Y-84062200D01*
X80006447Y-83440000D01*
X80012661Y-83440000D01*
X80114394Y-83412741D01*
X80205606Y-83360080D01*
X80280080Y-83285606D01*
X80332741Y-83194394D01*
X80360000Y-83092661D01*
X80360000Y-83086446D01*
X80982200Y-83708646D01*
X80982201Y-83708646D01*
X81003436Y-83679419D01*
X81090616Y-83508321D01*
X81149959Y-83325684D01*
X81180000Y-83136015D01*
X81180000Y-82943984D01*
X81149959Y-82754315D01*
X81090616Y-82571678D01*
X81003434Y-82400577D01*
X80982201Y-82371352D01*
X80982200Y-82371351D01*
X80360000Y-82993552D01*
X80360000Y-82987339D01*
X80332741Y-82885606D01*
X80280080Y-82794394D01*
X80205606Y-82719920D01*
X80114394Y-82667259D01*
X80012661Y-82640000D01*
X80006447Y-82640000D01*
X80628646Y-82017798D01*
X80599415Y-81996561D01*
X80428321Y-81909383D01*
X80245684Y-81850040D01*
X80056015Y-81820000D01*
X79863985Y-81820000D01*
X79674315Y-81850040D01*
X79491678Y-81909383D01*
X79320578Y-81996564D01*
X79291352Y-82017798D01*
X79291351Y-82017798D01*
X79913554Y-82640000D01*
X79907339Y-82640000D01*
X79805606Y-82667259D01*
X79714394Y-82719920D01*
X79639920Y-82794394D01*
X79587259Y-82885606D01*
X79560000Y-82987339D01*
X79560000Y-82993553D01*
X78937798Y-82371351D01*
X78937798Y-82371352D01*
X78916564Y-82400578D01*
X78829383Y-82571678D01*
X78770040Y-82754315D01*
X78740000Y-82943984D01*
X71000500Y-82943984D01*
X71000500Y-80399484D01*
X81479500Y-80399484D01*
X81479500Y-80600515D01*
X81518715Y-80797661D01*
X81518718Y-80797673D01*
X81595640Y-80983381D01*
X81595647Y-80983394D01*
X81707325Y-81150530D01*
X81707328Y-81150534D01*
X81849465Y-81292671D01*
X81849469Y-81292674D01*
X82016605Y-81404352D01*
X82016618Y-81404359D01*
X82202326Y-81481281D01*
X82202331Y-81481283D01*
X82399484Y-81520499D01*
X82399488Y-81520500D01*
X82399489Y-81520500D01*
X82600512Y-81520500D01*
X82600513Y-81520499D01*
X82797669Y-81481283D01*
X82983388Y-81404356D01*
X83150531Y-81292674D01*
X83292674Y-81150531D01*
X83404356Y-80983388D01*
X83481283Y-80797669D01*
X83520500Y-80600511D01*
X83520500Y-80399489D01*
X83481283Y-80202331D01*
X83481281Y-80202326D01*
X83404359Y-80016618D01*
X83404352Y-80016605D01*
X83292674Y-79849469D01*
X83292671Y-79849465D01*
X83150534Y-79707328D01*
X83150530Y-79707325D01*
X82983394Y-79595647D01*
X82983381Y-79595640D01*
X82797673Y-79518718D01*
X82797661Y-79518715D01*
X82600515Y-79479500D01*
X82600511Y-79479500D01*
X82399489Y-79479500D01*
X82399484Y-79479500D01*
X82202338Y-79518715D01*
X82202326Y-79518718D01*
X82016618Y-79595640D01*
X82016605Y-79595647D01*
X81849469Y-79707325D01*
X81849465Y-79707328D01*
X81707328Y-79849465D01*
X81707325Y-79849469D01*
X81595647Y-80016605D01*
X81595640Y-80016618D01*
X81518718Y-80202326D01*
X81518715Y-80202338D01*
X81479500Y-80399484D01*
X71000500Y-80399484D01*
X71000500Y-77859484D01*
X78939500Y-77859484D01*
X78939500Y-78060515D01*
X78978715Y-78257661D01*
X78978718Y-78257673D01*
X79055640Y-78443381D01*
X79055647Y-78443394D01*
X79167325Y-78610530D01*
X79167328Y-78610534D01*
X79309465Y-78752671D01*
X79309469Y-78752674D01*
X79476605Y-78864352D01*
X79476618Y-78864359D01*
X79662326Y-78941281D01*
X79662331Y-78941283D01*
X79859484Y-78980499D01*
X79859488Y-78980500D01*
X79859489Y-78980500D01*
X80060512Y-78980500D01*
X80060513Y-78980499D01*
X80257669Y-78941283D01*
X80443388Y-78864356D01*
X80610531Y-78752674D01*
X80752674Y-78610531D01*
X80864356Y-78443388D01*
X80909768Y-78333753D01*
X86150000Y-78333753D01*
X86150000Y-78546246D01*
X86183242Y-78756127D01*
X86183242Y-78756130D01*
X86248904Y-78958217D01*
X86345375Y-79147550D01*
X86384728Y-79201716D01*
X87017037Y-78569408D01*
X87034075Y-78632993D01*
X87099901Y-78747007D01*
X87192993Y-78840099D01*
X87307007Y-78905925D01*
X87370590Y-78922962D01*
X86738282Y-79555269D01*
X86738282Y-79555270D01*
X86792449Y-79594624D01*
X86981780Y-79691094D01*
X87010705Y-79700492D01*
X87068381Y-79739929D01*
X87095580Y-79804287D01*
X87083667Y-79873134D01*
X87036424Y-79924610D01*
X87028685Y-79928908D01*
X86897004Y-79996004D01*
X86750505Y-80102441D01*
X86750500Y-80102445D01*
X86622445Y-80230500D01*
X86622441Y-80230505D01*
X86516006Y-80377002D01*
X86433788Y-80538360D01*
X86433787Y-80538363D01*
X86377829Y-80710589D01*
X86349500Y-80889448D01*
X86349500Y-81070551D01*
X86377829Y-81249410D01*
X86433787Y-81421636D01*
X86433788Y-81421639D01*
X86516006Y-81582997D01*
X86622441Y-81729494D01*
X86622445Y-81729499D01*
X86750500Y-81857554D01*
X86750505Y-81857558D01*
X86821837Y-81909383D01*
X86897006Y-81963996D01*
X87002484Y-82017740D01*
X87058360Y-82046211D01*
X87058363Y-82046212D01*
X87144476Y-82074191D01*
X87230591Y-82102171D01*
X87303639Y-82113740D01*
X87390678Y-82127527D01*
X87453813Y-82157456D01*
X87490744Y-82216768D01*
X87489746Y-82286631D01*
X87451136Y-82344863D01*
X87390678Y-82372473D01*
X87230589Y-82397829D01*
X87058363Y-82453787D01*
X87058360Y-82453788D01*
X86897002Y-82536006D01*
X86750505Y-82642441D01*
X86750500Y-82642445D01*
X86622445Y-82770500D01*
X86622441Y-82770505D01*
X86516006Y-82917002D01*
X86433788Y-83078360D01*
X86433787Y-83078363D01*
X86377829Y-83250589D01*
X86349500Y-83429448D01*
X86349500Y-83610551D01*
X86377829Y-83789410D01*
X86433787Y-83961636D01*
X86433788Y-83961639D01*
X86516006Y-84122997D01*
X86622441Y-84269494D01*
X86622445Y-84269499D01*
X86750500Y-84397554D01*
X86750505Y-84397558D01*
X86878287Y-84490396D01*
X86897006Y-84503996D01*
X87002484Y-84557740D01*
X87058360Y-84586211D01*
X87058363Y-84586212D01*
X87144476Y-84614191D01*
X87230591Y-84642171D01*
X87303639Y-84653740D01*
X87390678Y-84667527D01*
X87453813Y-84697456D01*
X87490744Y-84756768D01*
X87489746Y-84826631D01*
X87451136Y-84884863D01*
X87390678Y-84912473D01*
X87230589Y-84937829D01*
X87058363Y-84993787D01*
X87058360Y-84993788D01*
X86897002Y-85076006D01*
X86750505Y-85182441D01*
X86750500Y-85182445D01*
X86622445Y-85310500D01*
X86622441Y-85310505D01*
X86516006Y-85457002D01*
X86433788Y-85618360D01*
X86433787Y-85618363D01*
X86377829Y-85790589D01*
X86349500Y-85969448D01*
X86349500Y-86150551D01*
X86377829Y-86329410D01*
X86433787Y-86501636D01*
X86433788Y-86501639D01*
X86516006Y-86662997D01*
X86622441Y-86809494D01*
X86622445Y-86809499D01*
X86750500Y-86937554D01*
X86750505Y-86937558D01*
X86878287Y-87030396D01*
X86897006Y-87043996D01*
X87002484Y-87097740D01*
X87058360Y-87126211D01*
X87058363Y-87126212D01*
X87144476Y-87154191D01*
X87230591Y-87182171D01*
X87303639Y-87193740D01*
X87390678Y-87207527D01*
X87453813Y-87237456D01*
X87490744Y-87296768D01*
X87489746Y-87366631D01*
X87451136Y-87424863D01*
X87390678Y-87452473D01*
X87230589Y-87477829D01*
X87058363Y-87533787D01*
X87058360Y-87533788D01*
X86897002Y-87616006D01*
X86750505Y-87722441D01*
X86750500Y-87722445D01*
X86622445Y-87850500D01*
X86622441Y-87850505D01*
X86516006Y-87997002D01*
X86433788Y-88158360D01*
X86433787Y-88158363D01*
X86377829Y-88330589D01*
X86349500Y-88509448D01*
X86349500Y-88690551D01*
X86377829Y-88869410D01*
X86433787Y-89041636D01*
X86433788Y-89041639D01*
X86516006Y-89202997D01*
X86622441Y-89349494D01*
X86622445Y-89349499D01*
X86750500Y-89477554D01*
X86750505Y-89477558D01*
X86878287Y-89570396D01*
X86897006Y-89583996D01*
X87002484Y-89637740D01*
X87058360Y-89666211D01*
X87058363Y-89666212D01*
X87144476Y-89694191D01*
X87230591Y-89722171D01*
X87303639Y-89733740D01*
X87390678Y-89747527D01*
X87453813Y-89777456D01*
X87490744Y-89836768D01*
X87489746Y-89906631D01*
X87451136Y-89964863D01*
X87390678Y-89992473D01*
X87230589Y-90017829D01*
X87058363Y-90073787D01*
X87058360Y-90073788D01*
X86897002Y-90156006D01*
X86750505Y-90262441D01*
X86750500Y-90262445D01*
X86622445Y-90390500D01*
X86622441Y-90390505D01*
X86516006Y-90537002D01*
X86433788Y-90698360D01*
X86433787Y-90698363D01*
X86377829Y-90870589D01*
X86349500Y-91049448D01*
X86349500Y-91230551D01*
X86377829Y-91409410D01*
X86433787Y-91581636D01*
X86433788Y-91581639D01*
X86516006Y-91742997D01*
X86622441Y-91889494D01*
X86622445Y-91889499D01*
X86750500Y-92017554D01*
X86750505Y-92017558D01*
X86809627Y-92060512D01*
X86897006Y-92123996D01*
X87002484Y-92177740D01*
X87058360Y-92206211D01*
X87058363Y-92206212D01*
X87144476Y-92234191D01*
X87230591Y-92262171D01*
X87303639Y-92273740D01*
X87390678Y-92287527D01*
X87453813Y-92317456D01*
X87490744Y-92376768D01*
X87489746Y-92446631D01*
X87451136Y-92504863D01*
X87390678Y-92532473D01*
X87230589Y-92557829D01*
X87058363Y-92613787D01*
X87058360Y-92613788D01*
X86897002Y-92696006D01*
X86750505Y-92802441D01*
X86750500Y-92802445D01*
X86622445Y-92930500D01*
X86622441Y-92930505D01*
X86516006Y-93077002D01*
X86433788Y-93238360D01*
X86433787Y-93238363D01*
X86377829Y-93410589D01*
X86349500Y-93589448D01*
X86349500Y-93770551D01*
X86377829Y-93949410D01*
X86433787Y-94121636D01*
X86433788Y-94121639D01*
X86474901Y-94202326D01*
X86503116Y-94257701D01*
X86516006Y-94282997D01*
X86622441Y-94429494D01*
X86622445Y-94429499D01*
X86750500Y-94557554D01*
X86750505Y-94557558D01*
X86809627Y-94600512D01*
X86897006Y-94663996D01*
X87000890Y-94716928D01*
X87058360Y-94746211D01*
X87058363Y-94746212D01*
X87144476Y-94774191D01*
X87230591Y-94802171D01*
X87303639Y-94813740D01*
X87390678Y-94827527D01*
X87453813Y-94857456D01*
X87490744Y-94916768D01*
X87489746Y-94986631D01*
X87451136Y-95044863D01*
X87390678Y-95072473D01*
X87230589Y-95097829D01*
X87058363Y-95153787D01*
X87058360Y-95153788D01*
X86897002Y-95236006D01*
X86750505Y-95342441D01*
X86750500Y-95342445D01*
X86622445Y-95470500D01*
X86622441Y-95470505D01*
X86516006Y-95617002D01*
X86433788Y-95778360D01*
X86433787Y-95778363D01*
X86377829Y-95950589D01*
X86349500Y-96129448D01*
X86349500Y-96310551D01*
X86377829Y-96489410D01*
X86433787Y-96661636D01*
X86433788Y-96661639D01*
X86481010Y-96754315D01*
X86501431Y-96794394D01*
X86516006Y-96822997D01*
X86622441Y-96969494D01*
X86622445Y-96969499D01*
X86750500Y-97097554D01*
X86750505Y-97097558D01*
X86878287Y-97190396D01*
X86897006Y-97203996D01*
X87002484Y-97257740D01*
X87058360Y-97286211D01*
X87058363Y-97286212D01*
X87144476Y-97314191D01*
X87230591Y-97342171D01*
X87303639Y-97353740D01*
X87390678Y-97367527D01*
X87453813Y-97397456D01*
X87490744Y-97456768D01*
X87489746Y-97526631D01*
X87451136Y-97584863D01*
X87390678Y-97612473D01*
X87230589Y-97637829D01*
X87058363Y-97693787D01*
X87058360Y-97693788D01*
X86897002Y-97776006D01*
X86750505Y-97882441D01*
X86750500Y-97882445D01*
X86622445Y-98010500D01*
X86622441Y-98010505D01*
X86516006Y-98157002D01*
X86433788Y-98318360D01*
X86433787Y-98318363D01*
X86377829Y-98490589D01*
X86349500Y-98669448D01*
X86349500Y-98850551D01*
X86377829Y-99029410D01*
X86433787Y-99201636D01*
X86433788Y-99201639D01*
X86516006Y-99362997D01*
X86622441Y-99509494D01*
X86622445Y-99509499D01*
X86750500Y-99637554D01*
X86750505Y-99637558D01*
X86878287Y-99730396D01*
X86897006Y-99743996D01*
X87002484Y-99797740D01*
X87058360Y-99826211D01*
X87058363Y-99826212D01*
X87144476Y-99854191D01*
X87230591Y-99882171D01*
X87303639Y-99893740D01*
X87390678Y-99907527D01*
X87453813Y-99937456D01*
X87490744Y-99996768D01*
X87489746Y-100066631D01*
X87451136Y-100124863D01*
X87390678Y-100152473D01*
X87230589Y-100177829D01*
X87058363Y-100233787D01*
X87058360Y-100233788D01*
X86897002Y-100316006D01*
X86750505Y-100422441D01*
X86750500Y-100422445D01*
X86622445Y-100550500D01*
X86622441Y-100550505D01*
X86516006Y-100697002D01*
X86433788Y-100858360D01*
X86433787Y-100858363D01*
X86377829Y-101030589D01*
X86349500Y-101209448D01*
X86349500Y-101390551D01*
X86377829Y-101569410D01*
X86433787Y-101741636D01*
X86433788Y-101741639D01*
X86516006Y-101902997D01*
X86622441Y-102049494D01*
X86622445Y-102049499D01*
X86750500Y-102177554D01*
X86750505Y-102177558D01*
X86814007Y-102223694D01*
X86897006Y-102283996D01*
X86980044Y-102326306D01*
X87058360Y-102366211D01*
X87058363Y-102366212D01*
X87144476Y-102394191D01*
X87230591Y-102422171D01*
X87303639Y-102433740D01*
X87390678Y-102447527D01*
X87453813Y-102477456D01*
X87490744Y-102536768D01*
X87489746Y-102606631D01*
X87451136Y-102664863D01*
X87390678Y-102692473D01*
X87230589Y-102717829D01*
X87058363Y-102773787D01*
X87058360Y-102773788D01*
X86897002Y-102856006D01*
X86750505Y-102962441D01*
X86750500Y-102962445D01*
X86622445Y-103090500D01*
X86622441Y-103090505D01*
X86516006Y-103237002D01*
X86433788Y-103398360D01*
X86433787Y-103398363D01*
X86377829Y-103570589D01*
X86349500Y-103749448D01*
X86349500Y-103930551D01*
X86377829Y-104109410D01*
X86433787Y-104281636D01*
X86433788Y-104281639D01*
X86516006Y-104442997D01*
X86622441Y-104589494D01*
X86622445Y-104589499D01*
X86750500Y-104717554D01*
X86750505Y-104717558D01*
X86878287Y-104810396D01*
X86897006Y-104823996D01*
X87002484Y-104877740D01*
X87058360Y-104906211D01*
X87058363Y-104906212D01*
X87144476Y-104934191D01*
X87230591Y-104962171D01*
X87303639Y-104973740D01*
X87390678Y-104987527D01*
X87453813Y-105017456D01*
X87490744Y-105076768D01*
X87489746Y-105146631D01*
X87451136Y-105204863D01*
X87390678Y-105232473D01*
X87230589Y-105257829D01*
X87058363Y-105313787D01*
X87058360Y-105313788D01*
X86897002Y-105396006D01*
X86750505Y-105502441D01*
X86750500Y-105502445D01*
X86622445Y-105630500D01*
X86622441Y-105630505D01*
X86516006Y-105777002D01*
X86433788Y-105938360D01*
X86433787Y-105938363D01*
X86377829Y-106110589D01*
X86349500Y-106289448D01*
X86349500Y-106470551D01*
X86377829Y-106649410D01*
X86433787Y-106821636D01*
X86433788Y-106821639D01*
X86489664Y-106931300D01*
X86514733Y-106980500D01*
X86516006Y-106982997D01*
X86622441Y-107129494D01*
X86622445Y-107129499D01*
X86750500Y-107257554D01*
X86750505Y-107257558D01*
X86878287Y-107350396D01*
X86897006Y-107363996D01*
X87002484Y-107417740D01*
X87058360Y-107446211D01*
X87058363Y-107446212D01*
X87144476Y-107474191D01*
X87230591Y-107502171D01*
X87303639Y-107513740D01*
X87390678Y-107527527D01*
X87453813Y-107557456D01*
X87490744Y-107616768D01*
X87489746Y-107686631D01*
X87451136Y-107744863D01*
X87390678Y-107772473D01*
X87230589Y-107797829D01*
X87058363Y-107853787D01*
X87058360Y-107853788D01*
X86897002Y-107936006D01*
X86750505Y-108042441D01*
X86750500Y-108042445D01*
X86622445Y-108170500D01*
X86622441Y-108170505D01*
X86516006Y-108317002D01*
X86433788Y-108478360D01*
X86433787Y-108478363D01*
X86377829Y-108650589D01*
X86349500Y-108829448D01*
X86349500Y-109010551D01*
X86377829Y-109189410D01*
X86433787Y-109361636D01*
X86433788Y-109361639D01*
X86489664Y-109471300D01*
X86514733Y-109520500D01*
X86516006Y-109522997D01*
X86622441Y-109669494D01*
X86622445Y-109669499D01*
X86750500Y-109797554D01*
X86750505Y-109797558D01*
X86878287Y-109890396D01*
X86897006Y-109903996D01*
X87002484Y-109957740D01*
X87058360Y-109986211D01*
X87058363Y-109986212D01*
X87144476Y-110014191D01*
X87230591Y-110042171D01*
X87303639Y-110053740D01*
X87390678Y-110067527D01*
X87453813Y-110097456D01*
X87490744Y-110156768D01*
X87489746Y-110226631D01*
X87451136Y-110284863D01*
X87390678Y-110312473D01*
X87230589Y-110337829D01*
X87058363Y-110393787D01*
X87058360Y-110393788D01*
X86897002Y-110476006D01*
X86750505Y-110582441D01*
X86750500Y-110582445D01*
X86622445Y-110710500D01*
X86622441Y-110710505D01*
X86516006Y-110857002D01*
X86433788Y-111018360D01*
X86433787Y-111018363D01*
X86377829Y-111190589D01*
X86349500Y-111369448D01*
X86349500Y-111550551D01*
X86377829Y-111729410D01*
X86433787Y-111901636D01*
X86433788Y-111901639D01*
X86489664Y-112011300D01*
X86515599Y-112062200D01*
X86516006Y-112062997D01*
X86622441Y-112209494D01*
X86622445Y-112209499D01*
X86750500Y-112337554D01*
X86750505Y-112337558D01*
X86878287Y-112430396D01*
X86897006Y-112443996D01*
X87002484Y-112497740D01*
X87058360Y-112526211D01*
X87058363Y-112526212D01*
X87144476Y-112554191D01*
X87230591Y-112582171D01*
X87334716Y-112598662D01*
X87362270Y-112603027D01*
X87425405Y-112632956D01*
X87462336Y-112692268D01*
X87461338Y-112762130D01*
X87422728Y-112820363D01*
X87358765Y-112848477D01*
X87342872Y-112849500D01*
X86605143Y-112849500D01*
X86605117Y-112849502D01*
X86580012Y-112852413D01*
X86580008Y-112852415D01*
X86477235Y-112897793D01*
X86397794Y-112977234D01*
X86352415Y-113080006D01*
X86352415Y-113080008D01*
X86349500Y-113105131D01*
X86349500Y-114894856D01*
X86349502Y-114894882D01*
X86352413Y-114919987D01*
X86352415Y-114919991D01*
X86397793Y-115022764D01*
X86397794Y-115022765D01*
X86477235Y-115102206D01*
X86580009Y-115147585D01*
X86605135Y-115150500D01*
X88394864Y-115150499D01*
X88394879Y-115150497D01*
X88394882Y-115150497D01*
X88419987Y-115147586D01*
X88419988Y-115147585D01*
X88419991Y-115147585D01*
X88522765Y-115102206D01*
X88602206Y-115022765D01*
X88647585Y-114919991D01*
X88650500Y-114894865D01*
X88650499Y-113105136D01*
X88650497Y-113105117D01*
X88647586Y-113080012D01*
X88647585Y-113080010D01*
X88647585Y-113080009D01*
X88602206Y-112977235D01*
X88522765Y-112897794D01*
X88467081Y-112873207D01*
X88419992Y-112852415D01*
X88394868Y-112849500D01*
X87657128Y-112849500D01*
X87633419Y-112842538D01*
X87608873Y-112839725D01*
X87600484Y-112832867D01*
X87590089Y-112829815D01*
X87573911Y-112811144D01*
X87554778Y-112795504D01*
X87551427Y-112785197D01*
X87544334Y-112777011D01*
X87540817Y-112752555D01*
X87533179Y-112729056D01*
X87535932Y-112718577D01*
X87534390Y-112707853D01*
X87544654Y-112685375D01*
X87550933Y-112661480D01*
X87558913Y-112654153D01*
X87563415Y-112644297D01*
X87584201Y-112630938D01*
X87602403Y-112614229D01*
X87617798Y-112609347D01*
X87622193Y-112606523D01*
X87635968Y-112603319D01*
X87636853Y-112603165D01*
X87769409Y-112582171D01*
X87941639Y-112526211D01*
X88102994Y-112443996D01*
X88249501Y-112337553D01*
X88377553Y-112209501D01*
X88483996Y-112062994D01*
X88566211Y-111901639D01*
X88622171Y-111729409D01*
X88645152Y-111584312D01*
X88650246Y-111552155D01*
X91060000Y-111552155D01*
X91060000Y-112250000D01*
X92084722Y-112250000D01*
X92040667Y-112326306D01*
X92010000Y-112440756D01*
X92010000Y-112559244D01*
X92040667Y-112673694D01*
X92084722Y-112750000D01*
X91060000Y-112750000D01*
X91060000Y-113447844D01*
X91066401Y-113507372D01*
X91066403Y-113507379D01*
X91116645Y-113642086D01*
X91116649Y-113642093D01*
X91202809Y-113757187D01*
X91202812Y-113757190D01*
X91317906Y-113843350D01*
X91317913Y-113843354D01*
X91452620Y-113893596D01*
X91452627Y-113893598D01*
X91512155Y-113899999D01*
X91512172Y-113900000D01*
X92210000Y-113900000D01*
X92210000Y-112875277D01*
X92286306Y-112919333D01*
X92400756Y-112950000D01*
X92519244Y-112950000D01*
X92633694Y-112919333D01*
X92710000Y-112875277D01*
X92710000Y-113900000D01*
X93407828Y-113900000D01*
X93407844Y-113899999D01*
X93467372Y-113893598D01*
X93467379Y-113893596D01*
X93602086Y-113843354D01*
X93602093Y-113843350D01*
X93717187Y-113757190D01*
X93717190Y-113757187D01*
X93803350Y-113642093D01*
X93803354Y-113642086D01*
X93853596Y-113507379D01*
X93853598Y-113507372D01*
X93859999Y-113447844D01*
X93860000Y-113447827D01*
X93860000Y-113354969D01*
X93879685Y-113287930D01*
X93932489Y-113242175D01*
X94001647Y-113232231D01*
X94065203Y-113261256D01*
X94081012Y-113278481D01*
X94081146Y-113278368D01*
X94084308Y-113282070D01*
X94084310Y-113282073D01*
X94217927Y-113415690D01*
X94370801Y-113526760D01*
X94450347Y-113567290D01*
X94539163Y-113612545D01*
X94539165Y-113612545D01*
X94539168Y-113612547D01*
X94630079Y-113642086D01*
X94718881Y-113670940D01*
X94905514Y-113700500D01*
X94905519Y-113700500D01*
X95094486Y-113700500D01*
X95281118Y-113670940D01*
X95460832Y-113612547D01*
X95629199Y-113526760D01*
X95782073Y-113415690D01*
X95915690Y-113282073D01*
X96026760Y-113129199D01*
X96108790Y-112968204D01*
X96156764Y-112917409D01*
X96219275Y-112900500D01*
X97052725Y-112900500D01*
X97052727Y-112900500D01*
X97154588Y-112873207D01*
X97245913Y-112820480D01*
X97745910Y-112320481D01*
X97745913Y-112320480D01*
X97820480Y-112245913D01*
X97858812Y-112179520D01*
X97873207Y-112154588D01*
X97900500Y-112052727D01*
X97900500Y-111947273D01*
X97900500Y-101209448D01*
X99179500Y-101209448D01*
X99179500Y-101390551D01*
X99207829Y-101569410D01*
X99263787Y-101741636D01*
X99263788Y-101741639D01*
X99346006Y-101902997D01*
X99452441Y-102049494D01*
X99452445Y-102049499D01*
X99580500Y-102177554D01*
X99580505Y-102177558D01*
X99644007Y-102223694D01*
X99727006Y-102283996D01*
X99810044Y-102326306D01*
X99888360Y-102366211D01*
X99888363Y-102366212D01*
X99974476Y-102394191D01*
X100060591Y-102422171D01*
X100133639Y-102433740D01*
X100220678Y-102447527D01*
X100283813Y-102477456D01*
X100320744Y-102536768D01*
X100319746Y-102606631D01*
X100281136Y-102664863D01*
X100220678Y-102692473D01*
X100060589Y-102717829D01*
X99888363Y-102773787D01*
X99888360Y-102773788D01*
X99727002Y-102856006D01*
X99580505Y-102962441D01*
X99580500Y-102962445D01*
X99452445Y-103090500D01*
X99452441Y-103090505D01*
X99346006Y-103237002D01*
X99263788Y-103398360D01*
X99263787Y-103398363D01*
X99207829Y-103570589D01*
X99179500Y-103749448D01*
X99179500Y-103930551D01*
X99207829Y-104109410D01*
X99263787Y-104281636D01*
X99263788Y-104281639D01*
X99346006Y-104442997D01*
X99452441Y-104589494D01*
X99452445Y-104589499D01*
X99580500Y-104717554D01*
X99580505Y-104717558D01*
X99708287Y-104810396D01*
X99727006Y-104823996D01*
X99832484Y-104877740D01*
X99888360Y-104906211D01*
X99888363Y-104906212D01*
X99974476Y-104934191D01*
X100060591Y-104962171D01*
X100133639Y-104973740D01*
X100220678Y-104987527D01*
X100283813Y-105017456D01*
X100320744Y-105076768D01*
X100319746Y-105146631D01*
X100281136Y-105204863D01*
X100220678Y-105232473D01*
X100060589Y-105257829D01*
X99888363Y-105313787D01*
X99888360Y-105313788D01*
X99727002Y-105396006D01*
X99580505Y-105502441D01*
X99580500Y-105502445D01*
X99452445Y-105630500D01*
X99452441Y-105630505D01*
X99346006Y-105777002D01*
X99263788Y-105938360D01*
X99263787Y-105938363D01*
X99207829Y-106110589D01*
X99179500Y-106289448D01*
X99179500Y-106470551D01*
X99207829Y-106649410D01*
X99263787Y-106821636D01*
X99263788Y-106821639D01*
X99319664Y-106931300D01*
X99344733Y-106980500D01*
X99346006Y-106982997D01*
X99452441Y-107129494D01*
X99452445Y-107129499D01*
X99580500Y-107257554D01*
X99580505Y-107257558D01*
X99708287Y-107350396D01*
X99727006Y-107363996D01*
X99832484Y-107417740D01*
X99888360Y-107446211D01*
X99888363Y-107446212D01*
X99974476Y-107474191D01*
X100060591Y-107502171D01*
X100133639Y-107513740D01*
X100220678Y-107527527D01*
X100283813Y-107557456D01*
X100320744Y-107616768D01*
X100319746Y-107686631D01*
X100281136Y-107744863D01*
X100220678Y-107772473D01*
X100060589Y-107797829D01*
X99888363Y-107853787D01*
X99888360Y-107853788D01*
X99727002Y-107936006D01*
X99580505Y-108042441D01*
X99580500Y-108042445D01*
X99452445Y-108170500D01*
X99452441Y-108170505D01*
X99346006Y-108317002D01*
X99263788Y-108478360D01*
X99263787Y-108478363D01*
X99207829Y-108650589D01*
X99179500Y-108829448D01*
X99179500Y-109010551D01*
X99207829Y-109189410D01*
X99263787Y-109361636D01*
X99263788Y-109361639D01*
X99319664Y-109471300D01*
X99344733Y-109520500D01*
X99346006Y-109522997D01*
X99452441Y-109669494D01*
X99452445Y-109669499D01*
X99580500Y-109797554D01*
X99580505Y-109797558D01*
X99708287Y-109890396D01*
X99727006Y-109903996D01*
X99832484Y-109957740D01*
X99888360Y-109986211D01*
X99888363Y-109986212D01*
X99974476Y-110014191D01*
X100060591Y-110042171D01*
X100133639Y-110053740D01*
X100220678Y-110067527D01*
X100283813Y-110097456D01*
X100320744Y-110156768D01*
X100319746Y-110226631D01*
X100281136Y-110284863D01*
X100220678Y-110312473D01*
X100060589Y-110337829D01*
X99888363Y-110393787D01*
X99888360Y-110393788D01*
X99727002Y-110476006D01*
X99580505Y-110582441D01*
X99580500Y-110582445D01*
X99452445Y-110710500D01*
X99452441Y-110710505D01*
X99346006Y-110857002D01*
X99263788Y-111018360D01*
X99263787Y-111018363D01*
X99207829Y-111190589D01*
X99179500Y-111369448D01*
X99179500Y-111550551D01*
X99207829Y-111729410D01*
X99263787Y-111901636D01*
X99263788Y-111901639D01*
X99319664Y-112011300D01*
X99345599Y-112062200D01*
X99346006Y-112062997D01*
X99452441Y-112209494D01*
X99452445Y-112209499D01*
X99580500Y-112337554D01*
X99580505Y-112337558D01*
X99708287Y-112430396D01*
X99727006Y-112443996D01*
X99832484Y-112497740D01*
X99888360Y-112526211D01*
X99888363Y-112526212D01*
X99974476Y-112554191D01*
X100060591Y-112582171D01*
X100164716Y-112598662D01*
X100192270Y-112603027D01*
X100255405Y-112632956D01*
X100292336Y-112692268D01*
X100291338Y-112762130D01*
X100252728Y-112820363D01*
X100188765Y-112848477D01*
X100172872Y-112849500D01*
X99435143Y-112849500D01*
X99435117Y-112849502D01*
X99410012Y-112852413D01*
X99410008Y-112852415D01*
X99307235Y-112897793D01*
X99227794Y-112977234D01*
X99182415Y-113080006D01*
X99182415Y-113080008D01*
X99179500Y-113105131D01*
X99179500Y-114894856D01*
X99179502Y-114894882D01*
X99182413Y-114919987D01*
X99182415Y-114919991D01*
X99227793Y-115022764D01*
X99227794Y-115022765D01*
X99307235Y-115102206D01*
X99410009Y-115147585D01*
X99435135Y-115150500D01*
X101224864Y-115150499D01*
X101224879Y-115150497D01*
X101224882Y-115150497D01*
X101249987Y-115147586D01*
X101249988Y-115147585D01*
X101249991Y-115147585D01*
X101352765Y-115102206D01*
X101432206Y-115022765D01*
X101477585Y-114919991D01*
X101480500Y-114894865D01*
X101480499Y-113105136D01*
X101480497Y-113105117D01*
X101477586Y-113080012D01*
X101477585Y-113080010D01*
X101477585Y-113080009D01*
X101432206Y-112977235D01*
X101352765Y-112897794D01*
X101297081Y-112873207D01*
X101249992Y-112852415D01*
X101224868Y-112849500D01*
X100487128Y-112849500D01*
X100420089Y-112829815D01*
X100374334Y-112777011D01*
X100364390Y-112707853D01*
X100393415Y-112644297D01*
X100452193Y-112606523D01*
X100467730Y-112603027D01*
X100491014Y-112599338D01*
X100599409Y-112582171D01*
X100771639Y-112526211D01*
X100932994Y-112443996D01*
X101079501Y-112337553D01*
X101207553Y-112209501D01*
X101313996Y-112062994D01*
X101396211Y-111901639D01*
X101452171Y-111729409D01*
X101475152Y-111584312D01*
X101480500Y-111550551D01*
X101480500Y-111369448D01*
X101452773Y-111194394D01*
X101452171Y-111190591D01*
X101403242Y-111040000D01*
X101396212Y-111018363D01*
X101396211Y-111018360D01*
X101358314Y-110943984D01*
X101313996Y-110857006D01*
X101214398Y-110719920D01*
X101207558Y-110710505D01*
X101207554Y-110710500D01*
X101079499Y-110582445D01*
X101079494Y-110582441D01*
X100932997Y-110476006D01*
X100932996Y-110476005D01*
X100932994Y-110476004D01*
X100881300Y-110449664D01*
X100771639Y-110393788D01*
X100771636Y-110393787D01*
X100599410Y-110337829D01*
X100439321Y-110312473D01*
X100376186Y-110282544D01*
X100339255Y-110223232D01*
X100340253Y-110153370D01*
X100378863Y-110095137D01*
X100439321Y-110067527D01*
X100509425Y-110056422D01*
X100599409Y-110042171D01*
X100771639Y-109986211D01*
X100932994Y-109903996D01*
X101079501Y-109797553D01*
X101207553Y-109669501D01*
X101313996Y-109522994D01*
X101396211Y-109361639D01*
X101452171Y-109189409D01*
X101466765Y-109097259D01*
X101480500Y-109010551D01*
X101480500Y-108829448D01*
X101480314Y-108828274D01*
X101480314Y-108828273D01*
X101478014Y-108813753D01*
X111680000Y-108813753D01*
X111680000Y-109026246D01*
X111713242Y-109236127D01*
X111713242Y-109236130D01*
X111778904Y-109438217D01*
X111875375Y-109627550D01*
X111914728Y-109681716D01*
X112547037Y-109049408D01*
X112564075Y-109112993D01*
X112629901Y-109227007D01*
X112722993Y-109320099D01*
X112837007Y-109385925D01*
X112900590Y-109402962D01*
X112268282Y-110035269D01*
X112268282Y-110035270D01*
X112322449Y-110074624D01*
X112511780Y-110171094D01*
X112540705Y-110180492D01*
X112598381Y-110219929D01*
X112625580Y-110284287D01*
X112613667Y-110353134D01*
X112566424Y-110404610D01*
X112558685Y-110408908D01*
X112427004Y-110476004D01*
X112280505Y-110582441D01*
X112280500Y-110582445D01*
X112152445Y-110710500D01*
X112152441Y-110710505D01*
X112046006Y-110857002D01*
X111963788Y-111018360D01*
X111963787Y-111018363D01*
X111907829Y-111190589D01*
X111879500Y-111369448D01*
X111879500Y-111550551D01*
X111907829Y-111729410D01*
X111963787Y-111901636D01*
X111963788Y-111901639D01*
X112019664Y-112011300D01*
X112045599Y-112062200D01*
X112046006Y-112062997D01*
X112152441Y-112209494D01*
X112152445Y-112209499D01*
X112280500Y-112337554D01*
X112280505Y-112337558D01*
X112408287Y-112430396D01*
X112427006Y-112443996D01*
X112532484Y-112497740D01*
X112588360Y-112526211D01*
X112588363Y-112526212D01*
X112674476Y-112554191D01*
X112760591Y-112582171D01*
X112864716Y-112598662D01*
X112892270Y-112603027D01*
X112955405Y-112632956D01*
X112992336Y-112692268D01*
X112991338Y-112762130D01*
X112952728Y-112820363D01*
X112888765Y-112848477D01*
X112872872Y-112849500D01*
X112135143Y-112849500D01*
X112135117Y-112849502D01*
X112110012Y-112852413D01*
X112110008Y-112852415D01*
X112007235Y-112897793D01*
X111927794Y-112977234D01*
X111882415Y-113080006D01*
X111882415Y-113080008D01*
X111879500Y-113105131D01*
X111879500Y-114894856D01*
X111879502Y-114894882D01*
X111882413Y-114919987D01*
X111882415Y-114919991D01*
X111927793Y-115022764D01*
X111927794Y-115022765D01*
X112007235Y-115102206D01*
X112110009Y-115147585D01*
X112135135Y-115150500D01*
X113924864Y-115150499D01*
X113924879Y-115150497D01*
X113924882Y-115150497D01*
X113949987Y-115147586D01*
X113949988Y-115147585D01*
X113949991Y-115147585D01*
X114052765Y-115102206D01*
X114132206Y-115022765D01*
X114177585Y-114919991D01*
X114180500Y-114894865D01*
X114180499Y-113105136D01*
X114180497Y-113105117D01*
X114177586Y-113080012D01*
X114177585Y-113080010D01*
X114177585Y-113080009D01*
X114132206Y-112977235D01*
X114052765Y-112897794D01*
X113997081Y-112873207D01*
X113949992Y-112852415D01*
X113924868Y-112849500D01*
X113187128Y-112849500D01*
X113120089Y-112829815D01*
X113074334Y-112777011D01*
X113064390Y-112707853D01*
X113093415Y-112644297D01*
X113152193Y-112606523D01*
X113167730Y-112603027D01*
X113191014Y-112599338D01*
X113299409Y-112582171D01*
X113471639Y-112526211D01*
X113632994Y-112443996D01*
X113779501Y-112337553D01*
X113907553Y-112209501D01*
X114013996Y-112062994D01*
X114096211Y-111901639D01*
X114152171Y-111729409D01*
X114175152Y-111584312D01*
X114180500Y-111550551D01*
X114180500Y-111369448D01*
X114152773Y-111194394D01*
X114152171Y-111190591D01*
X114103242Y-111040000D01*
X114096212Y-111018363D01*
X114096211Y-111018360D01*
X114058314Y-110943984D01*
X114013996Y-110857006D01*
X113914398Y-110719920D01*
X113907558Y-110710505D01*
X113907554Y-110710500D01*
X113779499Y-110582445D01*
X113779494Y-110582441D01*
X113632995Y-110476004D01*
X113501314Y-110408908D01*
X113450519Y-110360934D01*
X113433724Y-110293113D01*
X113456262Y-110226978D01*
X113510977Y-110183527D01*
X113519295Y-110180492D01*
X113548217Y-110171095D01*
X113737554Y-110074622D01*
X113791716Y-110035270D01*
X113791717Y-110035270D01*
X113159408Y-109402962D01*
X113222993Y-109385925D01*
X113337007Y-109320099D01*
X113430099Y-109227007D01*
X113495925Y-109112993D01*
X113512962Y-109049409D01*
X114145270Y-109681717D01*
X114145270Y-109681716D01*
X114184622Y-109627554D01*
X114281095Y-109438217D01*
X114346757Y-109236130D01*
X114346757Y-109236127D01*
X114380000Y-109026246D01*
X114380000Y-108813753D01*
X114346757Y-108603872D01*
X114346757Y-108603869D01*
X114281095Y-108401782D01*
X114184624Y-108212449D01*
X114145270Y-108158282D01*
X114145269Y-108158282D01*
X113512962Y-108790590D01*
X113495925Y-108727007D01*
X113430099Y-108612993D01*
X113337007Y-108519901D01*
X113222993Y-108454075D01*
X113159409Y-108437037D01*
X113791716Y-107804728D01*
X113737550Y-107765375D01*
X113548217Y-107668904D01*
X113519292Y-107659506D01*
X113461616Y-107620068D01*
X113434418Y-107555710D01*
X113446333Y-107486863D01*
X113493577Y-107435388D01*
X113501315Y-107431090D01*
X113632994Y-107363996D01*
X113779501Y-107257553D01*
X113907553Y-107129501D01*
X114013996Y-106982994D01*
X114096211Y-106821639D01*
X114152171Y-106649409D01*
X114166765Y-106557259D01*
X114180500Y-106470551D01*
X114180500Y-106289448D01*
X114180314Y-106288274D01*
X114180314Y-106288273D01*
X114152171Y-106110589D01*
X114105424Y-105966716D01*
X114103429Y-105896875D01*
X114135672Y-105840719D01*
X115699574Y-104276819D01*
X115760897Y-104243334D01*
X115787255Y-104240500D01*
X116816840Y-104240500D01*
X116883879Y-104260185D01*
X116927325Y-104308205D01*
X116996006Y-104442997D01*
X117102441Y-104589494D01*
X117102445Y-104589499D01*
X117230500Y-104717554D01*
X117230505Y-104717558D01*
X117358287Y-104810396D01*
X117377006Y-104823996D01*
X117478780Y-104875853D01*
X117508684Y-104891090D01*
X117559480Y-104939065D01*
X117576275Y-105006886D01*
X117553737Y-105073021D01*
X117499022Y-105116472D01*
X117490708Y-105119506D01*
X117461781Y-105128905D01*
X117272439Y-105225380D01*
X117218282Y-105264727D01*
X117218282Y-105264728D01*
X117850591Y-105897037D01*
X117787007Y-105914075D01*
X117672993Y-105979901D01*
X117579901Y-106072993D01*
X117514075Y-106187007D01*
X117497037Y-106250591D01*
X116864728Y-105618282D01*
X116864727Y-105618282D01*
X116825380Y-105672439D01*
X116728904Y-105861782D01*
X116663242Y-106063869D01*
X116663242Y-106063872D01*
X116630000Y-106273753D01*
X116630000Y-106486246D01*
X116663242Y-106696127D01*
X116663242Y-106696130D01*
X116728904Y-106898217D01*
X116825375Y-107087550D01*
X116864728Y-107141716D01*
X117497037Y-106509408D01*
X117514075Y-106572993D01*
X117579901Y-106687007D01*
X117672993Y-106780099D01*
X117787007Y-106845925D01*
X117850590Y-106862962D01*
X117218282Y-107495269D01*
X117218282Y-107495270D01*
X117272449Y-107534624D01*
X117461780Y-107631094D01*
X117490705Y-107640492D01*
X117548381Y-107679929D01*
X117575580Y-107744287D01*
X117563667Y-107813134D01*
X117516424Y-107864610D01*
X117508685Y-107868908D01*
X117377004Y-107936004D01*
X117230505Y-108042441D01*
X117230500Y-108042445D01*
X117102445Y-108170500D01*
X117102441Y-108170505D01*
X116996006Y-108317002D01*
X116913788Y-108478360D01*
X116913787Y-108478363D01*
X116857829Y-108650589D01*
X116829500Y-108829448D01*
X116829500Y-109010551D01*
X116857829Y-109189410D01*
X116913787Y-109361636D01*
X116913788Y-109361639D01*
X116969664Y-109471300D01*
X116994733Y-109520500D01*
X116996006Y-109522997D01*
X117102441Y-109669494D01*
X117102445Y-109669499D01*
X117230500Y-109797554D01*
X117230505Y-109797558D01*
X117358287Y-109890396D01*
X117377006Y-109903996D01*
X117482484Y-109957740D01*
X117538360Y-109986211D01*
X117538363Y-109986212D01*
X117624476Y-110014191D01*
X117710591Y-110042171D01*
X117783639Y-110053740D01*
X117870678Y-110067527D01*
X117933813Y-110097456D01*
X117970744Y-110156768D01*
X117969746Y-110226631D01*
X117931136Y-110284863D01*
X117870678Y-110312473D01*
X117710589Y-110337829D01*
X117538363Y-110393787D01*
X117538360Y-110393788D01*
X117377002Y-110476006D01*
X117230505Y-110582441D01*
X117230500Y-110582445D01*
X117102445Y-110710500D01*
X117102441Y-110710505D01*
X116996006Y-110857002D01*
X116913788Y-111018360D01*
X116913787Y-111018363D01*
X116857829Y-111190589D01*
X116829500Y-111369448D01*
X116829500Y-111550551D01*
X116857829Y-111729410D01*
X116913787Y-111901636D01*
X116913788Y-111901639D01*
X116969664Y-112011300D01*
X116995599Y-112062200D01*
X116996006Y-112062997D01*
X117102441Y-112209494D01*
X117102445Y-112209499D01*
X117230500Y-112337554D01*
X117230505Y-112337558D01*
X117358287Y-112430396D01*
X117377006Y-112443996D01*
X117482484Y-112497740D01*
X117538360Y-112526211D01*
X117538363Y-112526212D01*
X117624476Y-112554191D01*
X117710591Y-112582171D01*
X117814716Y-112598662D01*
X117842270Y-112603027D01*
X117905405Y-112632956D01*
X117942336Y-112692268D01*
X117941338Y-112762130D01*
X117902728Y-112820363D01*
X117838765Y-112848477D01*
X117822872Y-112849500D01*
X117085143Y-112849500D01*
X117085117Y-112849502D01*
X117060012Y-112852413D01*
X117060008Y-112852415D01*
X116957235Y-112897793D01*
X116877794Y-112977234D01*
X116832415Y-113080006D01*
X116832415Y-113080008D01*
X116829500Y-113105131D01*
X116829500Y-114894856D01*
X116829502Y-114894882D01*
X116832413Y-114919987D01*
X116832415Y-114919991D01*
X116877793Y-115022764D01*
X116877794Y-115022765D01*
X116957235Y-115102206D01*
X117060009Y-115147585D01*
X117085135Y-115150500D01*
X118874864Y-115150499D01*
X118874879Y-115150497D01*
X118874882Y-115150497D01*
X118899987Y-115147586D01*
X118899988Y-115147585D01*
X118899991Y-115147585D01*
X119002765Y-115102206D01*
X119082206Y-115022765D01*
X119127585Y-114919991D01*
X119130500Y-114894865D01*
X119130499Y-113105136D01*
X119130497Y-113105117D01*
X119127586Y-113080012D01*
X119127585Y-113080010D01*
X119127585Y-113080009D01*
X119082206Y-112977235D01*
X119002765Y-112897794D01*
X118947081Y-112873207D01*
X118899992Y-112852415D01*
X118874868Y-112849500D01*
X118137128Y-112849500D01*
X118070089Y-112829815D01*
X118024334Y-112777011D01*
X118014390Y-112707853D01*
X118043415Y-112644297D01*
X118102193Y-112606523D01*
X118117730Y-112603027D01*
X118141014Y-112599338D01*
X118249409Y-112582171D01*
X118421639Y-112526211D01*
X118582994Y-112443996D01*
X118729501Y-112337553D01*
X118857553Y-112209501D01*
X118963996Y-112062994D01*
X119046211Y-111901639D01*
X119102171Y-111729409D01*
X119125152Y-111584312D01*
X119130500Y-111550551D01*
X119130500Y-111369448D01*
X119102773Y-111194394D01*
X119102171Y-111190591D01*
X119053242Y-111040000D01*
X119046212Y-111018363D01*
X119046211Y-111018360D01*
X119008314Y-110943984D01*
X118963996Y-110857006D01*
X118864398Y-110719920D01*
X118857558Y-110710505D01*
X118857554Y-110710500D01*
X118729499Y-110582445D01*
X118729494Y-110582441D01*
X118582997Y-110476006D01*
X118582996Y-110476005D01*
X118582994Y-110476004D01*
X118531300Y-110449664D01*
X118421639Y-110393788D01*
X118421636Y-110393787D01*
X118249410Y-110337829D01*
X118089321Y-110312473D01*
X118026186Y-110282544D01*
X117989255Y-110223232D01*
X117990253Y-110153370D01*
X118028863Y-110095137D01*
X118089321Y-110067527D01*
X118159425Y-110056422D01*
X118249409Y-110042171D01*
X118421639Y-109986211D01*
X118582994Y-109903996D01*
X118729501Y-109797553D01*
X118857553Y-109669501D01*
X118963996Y-109522994D01*
X119046211Y-109361639D01*
X119102171Y-109189409D01*
X119116765Y-109097259D01*
X119130500Y-109010551D01*
X119130500Y-108829448D01*
X119114019Y-108725397D01*
X119102171Y-108650591D01*
X119046211Y-108478361D01*
X119046211Y-108478360D01*
X119006021Y-108399484D01*
X118963996Y-108317006D01*
X118950396Y-108298287D01*
X118857558Y-108170505D01*
X118857554Y-108170500D01*
X118729499Y-108042445D01*
X118729494Y-108042441D01*
X118582995Y-107936004D01*
X118451314Y-107868908D01*
X118400519Y-107820934D01*
X118383724Y-107753113D01*
X118406262Y-107686978D01*
X118460977Y-107643527D01*
X118469295Y-107640492D01*
X118498217Y-107631095D01*
X118687554Y-107534622D01*
X118741716Y-107495270D01*
X118741717Y-107495270D01*
X118109408Y-106862962D01*
X118172993Y-106845925D01*
X118287007Y-106780099D01*
X118380099Y-106687007D01*
X118445925Y-106572993D01*
X118462962Y-106509409D01*
X119095270Y-107141717D01*
X119095270Y-107141716D01*
X119134622Y-107087554D01*
X119231095Y-106898217D01*
X119296757Y-106696130D01*
X119296757Y-106696127D01*
X119330000Y-106486246D01*
X119330000Y-106273753D01*
X119296757Y-106063872D01*
X119296757Y-106063869D01*
X119231095Y-105861782D01*
X119134624Y-105672449D01*
X119095270Y-105618282D01*
X119095269Y-105618282D01*
X118462962Y-106250590D01*
X118445925Y-106187007D01*
X118380099Y-106072993D01*
X118287007Y-105979901D01*
X118172993Y-105914075D01*
X118109409Y-105897037D01*
X118741716Y-105264728D01*
X118687550Y-105225375D01*
X118498217Y-105128904D01*
X118469292Y-105119506D01*
X118411616Y-105080068D01*
X118384418Y-105015710D01*
X118396333Y-104946863D01*
X118443577Y-104895388D01*
X118451315Y-104891090D01*
X118582994Y-104823996D01*
X118729501Y-104717553D01*
X118857553Y-104589501D01*
X118963996Y-104442994D01*
X119046211Y-104281639D01*
X119102171Y-104109409D01*
X119116765Y-104017259D01*
X119130500Y-103930551D01*
X119130500Y-103749448D01*
X119108816Y-103612545D01*
X119102171Y-103570591D01*
X119054084Y-103422591D01*
X119046212Y-103398363D01*
X119046211Y-103398360D01*
X119017740Y-103342484D01*
X118963996Y-103237006D01*
X118885670Y-103129199D01*
X118857558Y-103090505D01*
X118857554Y-103090500D01*
X118729499Y-102962445D01*
X118729494Y-102962441D01*
X118582997Y-102856006D01*
X118582996Y-102856005D01*
X118582994Y-102856004D01*
X118531300Y-102829664D01*
X118421639Y-102773788D01*
X118421636Y-102773787D01*
X118249410Y-102717829D01*
X118089321Y-102692473D01*
X118026186Y-102662544D01*
X117989255Y-102603232D01*
X117990253Y-102533370D01*
X118028863Y-102475137D01*
X118089321Y-102447527D01*
X118159425Y-102436422D01*
X118249409Y-102422171D01*
X118421639Y-102366211D01*
X118582994Y-102283996D01*
X118729501Y-102177553D01*
X118857553Y-102049501D01*
X118963996Y-101902994D01*
X119046211Y-101741639D01*
X119102171Y-101569409D01*
X119117403Y-101473240D01*
X119130500Y-101390551D01*
X119130500Y-101209448D01*
X119113164Y-101100000D01*
X119102171Y-101030591D01*
X119046211Y-100858361D01*
X119046211Y-100858360D01*
X119017740Y-100802484D01*
X118963996Y-100697006D01*
X118950396Y-100678287D01*
X118857558Y-100550505D01*
X118857554Y-100550500D01*
X118729499Y-100422445D01*
X118729494Y-100422441D01*
X118582997Y-100316006D01*
X118582996Y-100316005D01*
X118582994Y-100316004D01*
X118531300Y-100289664D01*
X118421639Y-100233788D01*
X118421636Y-100233787D01*
X118249410Y-100177829D01*
X118089321Y-100152473D01*
X118026186Y-100122544D01*
X117989255Y-100063232D01*
X117990253Y-99993370D01*
X118028863Y-99935137D01*
X118089321Y-99907527D01*
X118159425Y-99896422D01*
X118249409Y-99882171D01*
X118421639Y-99826211D01*
X118582994Y-99743996D01*
X118729501Y-99637553D01*
X118857553Y-99509501D01*
X118963996Y-99362994D01*
X119046211Y-99201639D01*
X119102171Y-99029409D01*
X119116765Y-98937259D01*
X119130500Y-98850551D01*
X119130500Y-98669448D01*
X119114019Y-98565397D01*
X119102171Y-98490591D01*
X119046211Y-98318361D01*
X119046211Y-98318360D01*
X119016474Y-98260000D01*
X118963996Y-98157006D01*
X118895116Y-98062200D01*
X118857558Y-98010505D01*
X118857554Y-98010500D01*
X118729499Y-97882445D01*
X118729494Y-97882441D01*
X118582997Y-97776006D01*
X118582996Y-97776005D01*
X118582994Y-97776004D01*
X118531300Y-97749664D01*
X118421639Y-97693788D01*
X118421636Y-97693787D01*
X118249410Y-97637829D01*
X118089321Y-97612473D01*
X118026186Y-97582544D01*
X117989255Y-97523232D01*
X117990253Y-97453370D01*
X118028863Y-97395137D01*
X118089321Y-97367527D01*
X118159425Y-97356422D01*
X118249409Y-97342171D01*
X118421639Y-97286211D01*
X118582994Y-97203996D01*
X118729501Y-97097553D01*
X118857553Y-96969501D01*
X118963996Y-96822994D01*
X119046211Y-96661639D01*
X119102171Y-96489409D01*
X119116765Y-96397259D01*
X119130500Y-96310551D01*
X119130500Y-96129448D01*
X119109452Y-95996561D01*
X119102171Y-95950591D01*
X119046211Y-95778361D01*
X119046211Y-95778360D01*
X119017740Y-95722484D01*
X118963996Y-95617006D01*
X118865389Y-95481284D01*
X118857558Y-95470505D01*
X118857554Y-95470500D01*
X118729499Y-95342445D01*
X118729494Y-95342441D01*
X118582997Y-95236006D01*
X118582996Y-95236005D01*
X118582994Y-95236004D01*
X118531300Y-95209664D01*
X118421639Y-95153788D01*
X118421636Y-95153787D01*
X118249410Y-95097829D01*
X118089321Y-95072473D01*
X118026186Y-95042544D01*
X117989255Y-94983232D01*
X117990253Y-94913370D01*
X118028863Y-94855137D01*
X118089321Y-94827527D01*
X118159425Y-94816422D01*
X118249409Y-94802171D01*
X118421639Y-94746211D01*
X118582994Y-94663996D01*
X118729501Y-94557553D01*
X118857553Y-94429501D01*
X118963996Y-94282994D01*
X119046211Y-94121639D01*
X119102171Y-93949409D01*
X119118001Y-93849465D01*
X119130500Y-93770551D01*
X119130500Y-93589448D01*
X119113085Y-93479500D01*
X119102171Y-93410591D01*
X119046211Y-93238361D01*
X119046211Y-93238360D01*
X119006582Y-93160586D01*
X118963996Y-93077006D01*
X118950396Y-93058287D01*
X118857558Y-92930505D01*
X118857554Y-92930500D01*
X118729499Y-92802445D01*
X118729494Y-92802441D01*
X118582997Y-92696006D01*
X118582996Y-92696005D01*
X118582994Y-92696004D01*
X118531300Y-92669664D01*
X118421639Y-92613788D01*
X118421636Y-92613787D01*
X118249410Y-92557829D01*
X118089321Y-92532473D01*
X118026186Y-92502544D01*
X117989255Y-92443232D01*
X117990253Y-92373370D01*
X118028863Y-92315137D01*
X118089321Y-92287527D01*
X118159425Y-92276422D01*
X118249409Y-92262171D01*
X118421639Y-92206211D01*
X118582994Y-92123996D01*
X118729501Y-92017553D01*
X118857553Y-91889501D01*
X118963996Y-91742994D01*
X119046211Y-91581639D01*
X119102171Y-91409409D01*
X119118622Y-91305543D01*
X119130500Y-91230551D01*
X119130500Y-91049448D01*
X119107245Y-90902627D01*
X119102171Y-90870591D01*
X119070162Y-90772075D01*
X119046212Y-90698363D01*
X119046211Y-90698360D01*
X119017740Y-90642484D01*
X118963996Y-90537006D01*
X118950396Y-90518287D01*
X118857558Y-90390505D01*
X118857554Y-90390500D01*
X118729499Y-90262445D01*
X118729494Y-90262441D01*
X118582997Y-90156006D01*
X118582996Y-90156005D01*
X118582994Y-90156004D01*
X118531300Y-90129664D01*
X118421639Y-90073788D01*
X118421636Y-90073787D01*
X118249410Y-90017829D01*
X118089321Y-89992473D01*
X118026186Y-89962544D01*
X117989255Y-89903232D01*
X117990253Y-89833370D01*
X118028863Y-89775137D01*
X118089321Y-89747527D01*
X118159425Y-89736422D01*
X118249409Y-89722171D01*
X118421639Y-89666211D01*
X118582994Y-89583996D01*
X118729501Y-89477553D01*
X118857553Y-89349501D01*
X118963996Y-89202994D01*
X119046211Y-89041639D01*
X119102171Y-88869409D01*
X119122303Y-88742299D01*
X119130500Y-88690551D01*
X119130500Y-88509448D01*
X119114019Y-88405397D01*
X119102171Y-88330591D01*
X119046211Y-88158361D01*
X119046211Y-88158360D01*
X119017740Y-88102484D01*
X118963996Y-87997006D01*
X118912841Y-87926597D01*
X118857558Y-87850505D01*
X118857554Y-87850500D01*
X118729499Y-87722445D01*
X118729494Y-87722441D01*
X118582997Y-87616006D01*
X118582996Y-87616005D01*
X118582994Y-87616004D01*
X118531300Y-87589664D01*
X118421639Y-87533788D01*
X118421636Y-87533787D01*
X118249410Y-87477829D01*
X118089321Y-87452473D01*
X118026186Y-87422544D01*
X117989255Y-87363232D01*
X117990253Y-87293370D01*
X118028863Y-87235137D01*
X118089321Y-87207527D01*
X118159425Y-87196422D01*
X118249409Y-87182171D01*
X118421639Y-87126211D01*
X118582994Y-87043996D01*
X118729501Y-86937553D01*
X118857553Y-86809501D01*
X118963996Y-86662994D01*
X119046211Y-86501639D01*
X119102171Y-86329409D01*
X119116765Y-86237259D01*
X119130500Y-86150551D01*
X119130500Y-85969448D01*
X119114019Y-85865397D01*
X119102171Y-85790591D01*
X119046211Y-85618361D01*
X119046211Y-85618360D01*
X119017740Y-85562484D01*
X118963996Y-85457006D01*
X118950396Y-85438287D01*
X118857558Y-85310505D01*
X118857554Y-85310500D01*
X118729499Y-85182445D01*
X118729494Y-85182441D01*
X118582997Y-85076006D01*
X118582996Y-85076005D01*
X118582994Y-85076004D01*
X118531300Y-85049664D01*
X118421639Y-84993788D01*
X118421636Y-84993787D01*
X118249410Y-84937829D01*
X118089321Y-84912473D01*
X118026186Y-84882544D01*
X117989255Y-84823232D01*
X117990253Y-84753370D01*
X118028863Y-84695137D01*
X118089321Y-84667527D01*
X118159425Y-84656422D01*
X118249409Y-84642171D01*
X118421639Y-84586211D01*
X118582994Y-84503996D01*
X118729501Y-84397553D01*
X118857553Y-84269501D01*
X118963996Y-84122994D01*
X119046211Y-83961639D01*
X119102171Y-83789409D01*
X119119592Y-83679415D01*
X119130500Y-83610551D01*
X119130500Y-83429448D01*
X119114019Y-83325397D01*
X119102171Y-83250591D01*
X119064944Y-83136015D01*
X119046212Y-83078363D01*
X119046211Y-83078360D01*
X119009552Y-83006414D01*
X118963996Y-82917006D01*
X118874914Y-82794394D01*
X118857558Y-82770505D01*
X118857554Y-82770500D01*
X118729499Y-82642445D01*
X118729494Y-82642441D01*
X118582997Y-82536006D01*
X118582996Y-82536005D01*
X118582994Y-82536004D01*
X118531300Y-82509664D01*
X118421639Y-82453788D01*
X118421636Y-82453787D01*
X118249410Y-82397829D01*
X118089321Y-82372473D01*
X118026186Y-82342544D01*
X117989255Y-82283232D01*
X117990253Y-82213370D01*
X118028863Y-82155137D01*
X118089321Y-82127527D01*
X118159425Y-82116422D01*
X118249409Y-82102171D01*
X118421639Y-82046211D01*
X118582994Y-81963996D01*
X118729501Y-81857553D01*
X118857553Y-81729501D01*
X118963996Y-81582994D01*
X119046211Y-81421639D01*
X119102171Y-81249409D01*
X119117832Y-81150530D01*
X119130500Y-81070551D01*
X119130500Y-80889448D01*
X119114019Y-80785397D01*
X119102171Y-80710591D01*
X119066405Y-80600512D01*
X119046212Y-80538363D01*
X119046211Y-80538360D01*
X119017740Y-80482484D01*
X118963996Y-80377006D01*
X118902507Y-80292373D01*
X118857558Y-80230505D01*
X118857554Y-80230500D01*
X118729499Y-80102445D01*
X118729494Y-80102441D01*
X118582997Y-79996006D01*
X118582996Y-79996005D01*
X118582994Y-79996004D01*
X118531300Y-79969664D01*
X118421639Y-79913788D01*
X118421636Y-79913787D01*
X118249410Y-79857829D01*
X118089321Y-79832473D01*
X118026186Y-79802544D01*
X117989255Y-79743232D01*
X117990253Y-79673370D01*
X118028863Y-79615137D01*
X118089321Y-79587527D01*
X118159425Y-79576422D01*
X118249409Y-79562171D01*
X118421639Y-79506211D01*
X118582994Y-79423996D01*
X118729501Y-79317553D01*
X118857553Y-79189501D01*
X118963996Y-79042994D01*
X119046211Y-78881639D01*
X119102171Y-78709409D01*
X119123055Y-78577552D01*
X119130500Y-78530551D01*
X119130500Y-78349448D01*
X119114019Y-78245397D01*
X119102171Y-78170591D01*
X119066405Y-78060512D01*
X119046212Y-77998363D01*
X119046211Y-77998360D01*
X119007192Y-77921782D01*
X118963996Y-77837006D01*
X118916821Y-77772075D01*
X118857558Y-77690505D01*
X118857554Y-77690500D01*
X118729499Y-77562445D01*
X118729494Y-77562441D01*
X118582997Y-77456006D01*
X118582996Y-77456005D01*
X118582994Y-77456004D01*
X118531300Y-77429664D01*
X118421639Y-77373788D01*
X118421636Y-77373787D01*
X118249410Y-77317829D01*
X118089321Y-77292473D01*
X118026186Y-77262544D01*
X117989255Y-77203232D01*
X117990253Y-77133370D01*
X118028863Y-77075137D01*
X118089321Y-77047527D01*
X118159425Y-77036422D01*
X118249409Y-77022171D01*
X118421639Y-76966211D01*
X118582994Y-76883996D01*
X118729501Y-76777553D01*
X118857553Y-76649501D01*
X118963996Y-76502994D01*
X119046211Y-76341639D01*
X119102171Y-76169409D01*
X119116765Y-76077259D01*
X119130500Y-75990551D01*
X119130500Y-75809448D01*
X119114019Y-75705397D01*
X119102171Y-75630591D01*
X119046211Y-75458361D01*
X119046211Y-75458360D01*
X119017740Y-75402484D01*
X118963996Y-75297006D01*
X118950396Y-75278287D01*
X118857558Y-75150505D01*
X118857554Y-75150500D01*
X118729499Y-75022445D01*
X118729494Y-75022441D01*
X118582997Y-74916006D01*
X118582996Y-74916005D01*
X118582994Y-74916004D01*
X118531300Y-74889664D01*
X118421639Y-74833788D01*
X118421636Y-74833787D01*
X118249410Y-74777829D01*
X118070551Y-74749500D01*
X118070546Y-74749500D01*
X117889454Y-74749500D01*
X117889449Y-74749500D01*
X117710589Y-74777829D01*
X117538363Y-74833787D01*
X117538360Y-74833788D01*
X117377002Y-74916006D01*
X117230505Y-75022441D01*
X117230500Y-75022445D01*
X117102445Y-75150500D01*
X117102441Y-75150505D01*
X116996006Y-75297002D01*
X116913788Y-75458360D01*
X116913787Y-75458363D01*
X116857829Y-75630589D01*
X116829500Y-75809448D01*
X116829500Y-75990551D01*
X116857829Y-76169410D01*
X116913787Y-76341636D01*
X116913788Y-76341639D01*
X116996006Y-76502997D01*
X117102441Y-76649494D01*
X117102445Y-76649499D01*
X117230500Y-76777554D01*
X117230505Y-76777558D01*
X117358287Y-76870396D01*
X117377006Y-76883996D01*
X117482484Y-76937740D01*
X117538360Y-76966211D01*
X117538363Y-76966212D01*
X117576851Y-76978717D01*
X117710591Y-77022171D01*
X117783639Y-77033740D01*
X117870678Y-77047527D01*
X117933813Y-77077456D01*
X117970744Y-77136768D01*
X117969746Y-77206631D01*
X117931136Y-77264863D01*
X117870678Y-77292473D01*
X117710589Y-77317829D01*
X117538363Y-77373787D01*
X117538360Y-77373788D01*
X117377002Y-77456006D01*
X117230505Y-77562441D01*
X117230500Y-77562445D01*
X117102445Y-77690500D01*
X117102441Y-77690505D01*
X116996006Y-77837002D01*
X116913788Y-77998360D01*
X116913787Y-77998363D01*
X116857829Y-78170589D01*
X116829500Y-78349448D01*
X116829500Y-78530551D01*
X116857829Y-78709410D01*
X116913787Y-78881636D01*
X116913788Y-78881639D01*
X116996006Y-79042997D01*
X117102441Y-79189494D01*
X117102445Y-79189499D01*
X117230500Y-79317554D01*
X117230505Y-79317558D01*
X117358287Y-79410396D01*
X117377006Y-79423996D01*
X117482484Y-79477740D01*
X117538360Y-79506211D01*
X117538363Y-79506212D01*
X117576851Y-79518717D01*
X117710591Y-79562171D01*
X117783639Y-79573740D01*
X117870678Y-79587527D01*
X117933813Y-79617456D01*
X117970744Y-79676768D01*
X117969746Y-79746631D01*
X117931136Y-79804863D01*
X117870678Y-79832473D01*
X117710589Y-79857829D01*
X117538363Y-79913787D01*
X117538360Y-79913788D01*
X117377002Y-79996006D01*
X117230505Y-80102441D01*
X117230500Y-80102445D01*
X117102445Y-80230500D01*
X117102441Y-80230505D01*
X116996006Y-80377002D01*
X116913788Y-80538360D01*
X116913787Y-80538363D01*
X116857829Y-80710589D01*
X116829500Y-80889448D01*
X116829500Y-81070551D01*
X116857829Y-81249410D01*
X116913787Y-81421636D01*
X116913788Y-81421639D01*
X116996006Y-81582997D01*
X117102441Y-81729494D01*
X117102445Y-81729499D01*
X117230500Y-81857554D01*
X117230505Y-81857558D01*
X117301837Y-81909383D01*
X117377006Y-81963996D01*
X117482484Y-82017740D01*
X117538360Y-82046211D01*
X117538363Y-82046212D01*
X117624476Y-82074191D01*
X117710591Y-82102171D01*
X117783639Y-82113740D01*
X117870678Y-82127527D01*
X117933813Y-82157456D01*
X117970744Y-82216768D01*
X117969746Y-82286631D01*
X117931136Y-82344863D01*
X117870678Y-82372473D01*
X117710589Y-82397829D01*
X117538363Y-82453787D01*
X117538360Y-82453788D01*
X117377002Y-82536006D01*
X117230505Y-82642441D01*
X117230500Y-82642445D01*
X117102445Y-82770500D01*
X117102441Y-82770505D01*
X116996006Y-82917002D01*
X116913788Y-83078360D01*
X116913787Y-83078363D01*
X116857829Y-83250589D01*
X116829500Y-83429448D01*
X116829500Y-83610551D01*
X116857829Y-83789410D01*
X116913787Y-83961636D01*
X116913788Y-83961639D01*
X116996006Y-84122997D01*
X117102441Y-84269494D01*
X117102445Y-84269499D01*
X117230500Y-84397554D01*
X117230505Y-84397558D01*
X117358287Y-84490396D01*
X117377006Y-84503996D01*
X117482484Y-84557740D01*
X117538360Y-84586211D01*
X117538363Y-84586212D01*
X117624476Y-84614191D01*
X117710591Y-84642171D01*
X117783639Y-84653740D01*
X117870678Y-84667527D01*
X117933813Y-84697456D01*
X117970744Y-84756768D01*
X117969746Y-84826631D01*
X117931136Y-84884863D01*
X117870678Y-84912473D01*
X117710589Y-84937829D01*
X117538363Y-84993787D01*
X117538360Y-84993788D01*
X117377002Y-85076006D01*
X117230505Y-85182441D01*
X117230500Y-85182445D01*
X117102445Y-85310500D01*
X117102441Y-85310505D01*
X116996006Y-85457002D01*
X116913788Y-85618360D01*
X116913787Y-85618363D01*
X116857829Y-85790589D01*
X116829500Y-85969448D01*
X116829500Y-86150551D01*
X116857829Y-86329410D01*
X116913787Y-86501636D01*
X116913788Y-86501639D01*
X116996006Y-86662997D01*
X117102441Y-86809494D01*
X117102445Y-86809499D01*
X117230500Y-86937554D01*
X117230505Y-86937558D01*
X117358287Y-87030396D01*
X117377006Y-87043996D01*
X117482484Y-87097740D01*
X117538360Y-87126211D01*
X117538363Y-87126212D01*
X117624476Y-87154191D01*
X117710591Y-87182171D01*
X117783639Y-87193740D01*
X117870678Y-87207527D01*
X117933813Y-87237456D01*
X117970744Y-87296768D01*
X117969746Y-87366631D01*
X117931136Y-87424863D01*
X117870678Y-87452473D01*
X117710589Y-87477829D01*
X117538363Y-87533787D01*
X117538360Y-87533788D01*
X117377002Y-87616006D01*
X117230505Y-87722441D01*
X117230500Y-87722445D01*
X117102445Y-87850500D01*
X117102441Y-87850505D01*
X116996006Y-87997002D01*
X116913788Y-88158360D01*
X116913787Y-88158363D01*
X116857829Y-88330589D01*
X116829500Y-88509448D01*
X116829500Y-88690551D01*
X116857829Y-88869410D01*
X116913787Y-89041636D01*
X116913788Y-89041639D01*
X116996006Y-89202997D01*
X117102441Y-89349494D01*
X117102445Y-89349499D01*
X117230500Y-89477554D01*
X117230505Y-89477558D01*
X117358287Y-89570396D01*
X117377006Y-89583996D01*
X117482484Y-89637740D01*
X117538360Y-89666211D01*
X117538363Y-89666212D01*
X117624476Y-89694191D01*
X117710591Y-89722171D01*
X117783639Y-89733740D01*
X117870678Y-89747527D01*
X117933813Y-89777456D01*
X117970744Y-89836768D01*
X117969746Y-89906631D01*
X117931136Y-89964863D01*
X117870678Y-89992473D01*
X117710589Y-90017829D01*
X117538363Y-90073787D01*
X117538360Y-90073788D01*
X117377002Y-90156006D01*
X117230505Y-90262441D01*
X117230500Y-90262445D01*
X117102445Y-90390500D01*
X117102441Y-90390505D01*
X116996006Y-90537002D01*
X116913788Y-90698360D01*
X116913787Y-90698363D01*
X116857829Y-90870589D01*
X116829500Y-91049448D01*
X116829500Y-91230551D01*
X116857829Y-91409410D01*
X116913787Y-91581636D01*
X116913788Y-91581639D01*
X116996006Y-91742997D01*
X117102441Y-91889494D01*
X117102445Y-91889499D01*
X117230500Y-92017554D01*
X117230505Y-92017558D01*
X117289627Y-92060512D01*
X117377006Y-92123996D01*
X117482484Y-92177740D01*
X117538360Y-92206211D01*
X117538363Y-92206212D01*
X117624476Y-92234191D01*
X117710591Y-92262171D01*
X117783639Y-92273740D01*
X117870678Y-92287527D01*
X117933813Y-92317456D01*
X117970744Y-92376768D01*
X117969746Y-92446631D01*
X117931136Y-92504863D01*
X117870678Y-92532473D01*
X117710589Y-92557829D01*
X117538363Y-92613787D01*
X117538360Y-92613788D01*
X117377002Y-92696006D01*
X117230505Y-92802441D01*
X117230500Y-92802445D01*
X117102445Y-92930500D01*
X117102441Y-92930505D01*
X116996006Y-93077002D01*
X116913788Y-93238360D01*
X116913787Y-93238363D01*
X116857829Y-93410589D01*
X116829500Y-93589448D01*
X116829500Y-93770551D01*
X116857829Y-93949410D01*
X116913787Y-94121636D01*
X116913788Y-94121639D01*
X116954901Y-94202326D01*
X116983116Y-94257701D01*
X116996006Y-94282997D01*
X117102441Y-94429494D01*
X117102445Y-94429499D01*
X117230500Y-94557554D01*
X117230505Y-94557558D01*
X117289627Y-94600512D01*
X117377006Y-94663996D01*
X117480890Y-94716928D01*
X117538360Y-94746211D01*
X117538363Y-94746212D01*
X117624476Y-94774191D01*
X117710591Y-94802171D01*
X117783639Y-94813740D01*
X117870678Y-94827527D01*
X117933813Y-94857456D01*
X117970744Y-94916768D01*
X117969746Y-94986631D01*
X117931136Y-95044863D01*
X117870678Y-95072473D01*
X117710589Y-95097829D01*
X117538363Y-95153787D01*
X117538360Y-95153788D01*
X117377002Y-95236006D01*
X117230505Y-95342441D01*
X117230500Y-95342445D01*
X117102445Y-95470500D01*
X117102441Y-95470505D01*
X116996006Y-95617002D01*
X116913788Y-95778360D01*
X116913787Y-95778363D01*
X116857829Y-95950589D01*
X116829500Y-96129448D01*
X116829500Y-96310551D01*
X116857829Y-96489410D01*
X116913787Y-96661636D01*
X116913788Y-96661639D01*
X116961010Y-96754315D01*
X116981431Y-96794394D01*
X116996006Y-96822997D01*
X117102441Y-96969494D01*
X117102445Y-96969499D01*
X117230500Y-97097554D01*
X117230505Y-97097558D01*
X117358287Y-97190396D01*
X117377006Y-97203996D01*
X117482484Y-97257740D01*
X117538360Y-97286211D01*
X117538363Y-97286212D01*
X117624476Y-97314191D01*
X117710591Y-97342171D01*
X117783639Y-97353740D01*
X117870678Y-97367527D01*
X117933813Y-97397456D01*
X117970744Y-97456768D01*
X117969746Y-97526631D01*
X117931136Y-97584863D01*
X117870678Y-97612473D01*
X117710589Y-97637829D01*
X117538363Y-97693787D01*
X117538360Y-97693788D01*
X117377002Y-97776006D01*
X117230505Y-97882441D01*
X117230500Y-97882445D01*
X117102445Y-98010500D01*
X117102441Y-98010505D01*
X116996006Y-98157002D01*
X116913788Y-98318360D01*
X116913787Y-98318363D01*
X116857829Y-98490589D01*
X116829500Y-98669448D01*
X116829500Y-98850551D01*
X116857829Y-99029410D01*
X116913787Y-99201636D01*
X116913788Y-99201639D01*
X116996006Y-99362997D01*
X117102441Y-99509494D01*
X117102445Y-99509499D01*
X117230500Y-99637554D01*
X117230505Y-99637558D01*
X117358287Y-99730396D01*
X117377006Y-99743996D01*
X117482484Y-99797740D01*
X117538360Y-99826211D01*
X117538363Y-99826212D01*
X117624476Y-99854191D01*
X117710591Y-99882171D01*
X117783639Y-99893740D01*
X117870678Y-99907527D01*
X117933813Y-99937456D01*
X117970744Y-99996768D01*
X117969746Y-100066631D01*
X117931136Y-100124863D01*
X117870678Y-100152473D01*
X117710589Y-100177829D01*
X117538363Y-100233787D01*
X117538360Y-100233788D01*
X117377002Y-100316006D01*
X117230505Y-100422441D01*
X117230500Y-100422445D01*
X117102445Y-100550500D01*
X117102441Y-100550505D01*
X116996006Y-100697002D01*
X116927325Y-100831795D01*
X116879350Y-100882591D01*
X116816840Y-100899500D01*
X115517273Y-100899500D01*
X115415413Y-100926793D01*
X115415410Y-100926794D01*
X115324085Y-100979521D01*
X114100902Y-102202702D01*
X114100903Y-102202703D01*
X113932702Y-102370903D01*
X113932701Y-102370904D01*
X113569280Y-102734325D01*
X113507957Y-102767810D01*
X113443281Y-102764575D01*
X113299410Y-102717829D01*
X113139321Y-102692473D01*
X113076186Y-102662544D01*
X113039255Y-102603232D01*
X113040253Y-102533370D01*
X113078863Y-102475137D01*
X113139321Y-102447527D01*
X113209425Y-102436422D01*
X113299409Y-102422171D01*
X113471639Y-102366211D01*
X113632994Y-102283996D01*
X113779501Y-102177553D01*
X113907553Y-102049501D01*
X114013996Y-101902994D01*
X114096211Y-101741639D01*
X114152171Y-101569409D01*
X114167403Y-101473240D01*
X114180500Y-101390551D01*
X114180500Y-101209448D01*
X114163164Y-101100000D01*
X114152171Y-101030591D01*
X114096211Y-100858361D01*
X114096211Y-100858360D01*
X114067740Y-100802484D01*
X114013996Y-100697006D01*
X114000396Y-100678287D01*
X113907558Y-100550505D01*
X113907554Y-100550500D01*
X113779499Y-100422445D01*
X113779494Y-100422441D01*
X113632997Y-100316006D01*
X113632996Y-100316005D01*
X113632994Y-100316004D01*
X113581300Y-100289664D01*
X113471639Y-100233788D01*
X113471636Y-100233787D01*
X113299410Y-100177829D01*
X113120551Y-100149500D01*
X113120546Y-100149500D01*
X112939454Y-100149500D01*
X112939449Y-100149500D01*
X112760589Y-100177829D01*
X112588363Y-100233787D01*
X112588360Y-100233788D01*
X112427002Y-100316006D01*
X112280505Y-100422441D01*
X112280500Y-100422445D01*
X112152445Y-100550500D01*
X112152441Y-100550505D01*
X112046006Y-100697002D01*
X111963788Y-100858360D01*
X111963787Y-100858363D01*
X111907829Y-101030589D01*
X111879500Y-101209448D01*
X111879500Y-101390551D01*
X111907829Y-101569410D01*
X111963787Y-101741636D01*
X111963788Y-101741639D01*
X112046006Y-101902997D01*
X112152441Y-102049494D01*
X112152445Y-102049499D01*
X112280500Y-102177554D01*
X112280505Y-102177558D01*
X112344007Y-102223694D01*
X112427006Y-102283996D01*
X112510044Y-102326306D01*
X112588360Y-102366211D01*
X112588363Y-102366212D01*
X112674476Y-102394191D01*
X112760591Y-102422171D01*
X112833639Y-102433740D01*
X112920678Y-102447527D01*
X112983813Y-102477456D01*
X113020744Y-102536768D01*
X113019746Y-102606631D01*
X112981136Y-102664863D01*
X112920678Y-102692473D01*
X112760589Y-102717829D01*
X112588363Y-102773787D01*
X112588360Y-102773788D01*
X112427002Y-102856006D01*
X112280505Y-102962441D01*
X112280500Y-102962445D01*
X112152445Y-103090500D01*
X112152441Y-103090505D01*
X112046006Y-103237002D01*
X111963788Y-103398360D01*
X111963787Y-103398363D01*
X111907829Y-103570589D01*
X111879500Y-103749448D01*
X111879500Y-103930551D01*
X111907829Y-104109410D01*
X111963787Y-104281636D01*
X111963788Y-104281639D01*
X112046006Y-104442997D01*
X112152441Y-104589494D01*
X112152445Y-104589499D01*
X112280500Y-104717554D01*
X112280505Y-104717558D01*
X112408287Y-104810396D01*
X112427006Y-104823996D01*
X112532484Y-104877740D01*
X112588360Y-104906211D01*
X112588363Y-104906212D01*
X112674476Y-104934191D01*
X112760591Y-104962171D01*
X112833639Y-104973740D01*
X112920678Y-104987527D01*
X112983813Y-105017456D01*
X113020744Y-105076768D01*
X113019746Y-105146631D01*
X112981136Y-105204863D01*
X112920678Y-105232473D01*
X112760589Y-105257829D01*
X112588363Y-105313787D01*
X112588360Y-105313788D01*
X112427002Y-105396006D01*
X112280505Y-105502441D01*
X112280500Y-105502445D01*
X112152445Y-105630500D01*
X112152441Y-105630505D01*
X112046006Y-105777002D01*
X111963788Y-105938360D01*
X111963787Y-105938363D01*
X111907829Y-106110589D01*
X111879500Y-106289448D01*
X111879500Y-106470551D01*
X111907829Y-106649410D01*
X111963787Y-106821636D01*
X111963788Y-106821639D01*
X112019664Y-106931300D01*
X112044733Y-106980500D01*
X112046006Y-106982997D01*
X112152441Y-107129494D01*
X112152445Y-107129499D01*
X112280500Y-107257554D01*
X112280505Y-107257558D01*
X112408287Y-107350396D01*
X112427006Y-107363996D01*
X112528780Y-107415853D01*
X112558684Y-107431090D01*
X112609480Y-107479065D01*
X112626275Y-107546886D01*
X112603737Y-107613021D01*
X112549022Y-107656472D01*
X112540708Y-107659506D01*
X112511781Y-107668905D01*
X112322439Y-107765380D01*
X112268282Y-107804727D01*
X112268282Y-107804728D01*
X112900591Y-108437037D01*
X112837007Y-108454075D01*
X112722993Y-108519901D01*
X112629901Y-108612993D01*
X112564075Y-108727007D01*
X112547037Y-108790591D01*
X111914728Y-108158282D01*
X111914727Y-108158282D01*
X111875380Y-108212439D01*
X111778904Y-108401782D01*
X111713242Y-108603869D01*
X111713242Y-108603872D01*
X111680000Y-108813753D01*
X101478014Y-108813753D01*
X101463256Y-108720580D01*
X101452171Y-108650591D01*
X101396211Y-108478361D01*
X101396211Y-108478360D01*
X101356021Y-108399484D01*
X101313996Y-108317006D01*
X101300396Y-108298287D01*
X101207558Y-108170505D01*
X101207554Y-108170500D01*
X101079499Y-108042445D01*
X101079494Y-108042441D01*
X100932997Y-107936006D01*
X100932996Y-107936005D01*
X100932994Y-107936004D01*
X100881300Y-107909664D01*
X100771639Y-107853788D01*
X100771636Y-107853787D01*
X100599410Y-107797829D01*
X100439321Y-107772473D01*
X100376186Y-107742544D01*
X100339255Y-107683232D01*
X100340253Y-107613370D01*
X100378863Y-107555137D01*
X100439321Y-107527527D01*
X100509425Y-107516422D01*
X100599409Y-107502171D01*
X100771639Y-107446211D01*
X100932994Y-107363996D01*
X101079501Y-107257553D01*
X101207553Y-107129501D01*
X101313996Y-106982994D01*
X101396211Y-106821639D01*
X101452171Y-106649409D01*
X101466765Y-106557259D01*
X101480500Y-106470551D01*
X101480500Y-106289448D01*
X101464019Y-106185397D01*
X101452171Y-106110591D01*
X101396211Y-105938361D01*
X101396211Y-105938360D01*
X101356021Y-105859484D01*
X101313996Y-105777006D01*
X101300396Y-105758287D01*
X101207558Y-105630505D01*
X101207554Y-105630500D01*
X101079499Y-105502445D01*
X101079494Y-105502441D01*
X100932997Y-105396006D01*
X100932996Y-105396005D01*
X100932994Y-105396004D01*
X100881300Y-105369664D01*
X100771639Y-105313788D01*
X100771636Y-105313787D01*
X100599410Y-105257829D01*
X100439321Y-105232473D01*
X100376186Y-105202544D01*
X100339255Y-105143232D01*
X100340253Y-105073370D01*
X100378863Y-105015137D01*
X100439321Y-104987527D01*
X100509425Y-104976422D01*
X100599409Y-104962171D01*
X100771639Y-104906211D01*
X100932994Y-104823996D01*
X101079501Y-104717553D01*
X101207553Y-104589501D01*
X101313996Y-104442994D01*
X101396211Y-104281639D01*
X101452171Y-104109409D01*
X101466765Y-104017259D01*
X101480500Y-103930551D01*
X101480500Y-103749448D01*
X101458816Y-103612545D01*
X101452171Y-103570591D01*
X101404084Y-103422591D01*
X101396212Y-103398363D01*
X101396211Y-103398360D01*
X101367740Y-103342484D01*
X101313996Y-103237006D01*
X101235670Y-103129199D01*
X101207558Y-103090505D01*
X101207554Y-103090500D01*
X101079499Y-102962445D01*
X101079494Y-102962441D01*
X100932997Y-102856006D01*
X100932996Y-102856005D01*
X100932994Y-102856004D01*
X100881300Y-102829664D01*
X100771639Y-102773788D01*
X100771636Y-102773787D01*
X100599410Y-102717829D01*
X100439321Y-102692473D01*
X100376186Y-102662544D01*
X100339255Y-102603232D01*
X100340253Y-102533370D01*
X100378863Y-102475137D01*
X100439321Y-102447527D01*
X100509425Y-102436422D01*
X100599409Y-102422171D01*
X100771639Y-102366211D01*
X100932994Y-102283996D01*
X101079501Y-102177553D01*
X101207553Y-102049501D01*
X101313996Y-101902994D01*
X101396211Y-101741639D01*
X101452171Y-101569409D01*
X101467403Y-101473240D01*
X101480500Y-101390551D01*
X101480500Y-101209448D01*
X101463164Y-101100000D01*
X101452171Y-101030591D01*
X101396211Y-100858361D01*
X101396211Y-100858360D01*
X101367740Y-100802484D01*
X101313996Y-100697006D01*
X101300396Y-100678287D01*
X101207558Y-100550505D01*
X101207554Y-100550500D01*
X101079499Y-100422445D01*
X101079494Y-100422441D01*
X100932997Y-100316006D01*
X100932996Y-100316005D01*
X100932994Y-100316004D01*
X100881300Y-100289664D01*
X100771639Y-100233788D01*
X100771636Y-100233787D01*
X100599410Y-100177829D01*
X100420551Y-100149500D01*
X100420546Y-100149500D01*
X100239454Y-100149500D01*
X100239449Y-100149500D01*
X100060589Y-100177829D01*
X99888363Y-100233787D01*
X99888360Y-100233788D01*
X99727002Y-100316006D01*
X99580505Y-100422441D01*
X99580500Y-100422445D01*
X99452445Y-100550500D01*
X99452441Y-100550505D01*
X99346006Y-100697002D01*
X99263788Y-100858360D01*
X99263787Y-100858363D01*
X99207829Y-101030589D01*
X99179500Y-101209448D01*
X97900500Y-101209448D01*
X97900500Y-97337254D01*
X97920185Y-97270215D01*
X97936814Y-97249578D01*
X100120401Y-95065990D01*
X100181722Y-95032507D01*
X100246393Y-95035741D01*
X100362299Y-95073402D01*
X100533389Y-95100500D01*
X100533390Y-95100500D01*
X100706610Y-95100500D01*
X100706611Y-95100500D01*
X100877701Y-95073402D01*
X101042445Y-95019873D01*
X101196788Y-94941232D01*
X101336928Y-94839414D01*
X101459414Y-94716928D01*
X101561232Y-94576788D01*
X101639873Y-94422445D01*
X101693402Y-94257701D01*
X101720500Y-94086611D01*
X101720500Y-93913389D01*
X101693402Y-93742299D01*
X101639873Y-93577555D01*
X101561232Y-93423212D01*
X101459414Y-93283072D01*
X101336928Y-93160586D01*
X101196788Y-93058768D01*
X101042445Y-92980127D01*
X100877701Y-92926598D01*
X100877699Y-92926597D01*
X100877698Y-92926597D01*
X100746271Y-92905781D01*
X100706611Y-92899500D01*
X100533389Y-92899500D01*
X100493728Y-92905781D01*
X100362302Y-92926597D01*
X100197552Y-92980128D01*
X100043211Y-93058768D01*
X99990078Y-93097372D01*
X99903072Y-93160586D01*
X99903070Y-93160588D01*
X99903069Y-93160588D01*
X99780588Y-93283069D01*
X99780588Y-93283070D01*
X99780586Y-93283072D01*
X99736859Y-93343256D01*
X99678768Y-93423211D01*
X99600128Y-93577552D01*
X99600127Y-93577554D01*
X99600127Y-93577555D01*
X99594249Y-93595647D01*
X99546597Y-93742302D01*
X99519500Y-93913389D01*
X99519500Y-94086610D01*
X99546597Y-94257698D01*
X99584256Y-94373600D01*
X99586251Y-94443441D01*
X99554006Y-94499599D01*
X97179522Y-96874084D01*
X97179520Y-96874087D01*
X97126793Y-96965411D01*
X97126793Y-96965412D01*
X97120275Y-96989737D01*
X97120275Y-96989738D01*
X97120274Y-96989737D01*
X97099500Y-97067271D01*
X97099500Y-111782745D01*
X97079815Y-111849784D01*
X97063181Y-111870426D01*
X96870426Y-112063181D01*
X96809103Y-112096666D01*
X96782745Y-112099500D01*
X96219275Y-112099500D01*
X96152236Y-112079815D01*
X96108790Y-112031795D01*
X96065724Y-111947273D01*
X96026760Y-111870801D01*
X95915690Y-111717927D01*
X95782073Y-111584310D01*
X95629199Y-111473240D01*
X95563962Y-111440000D01*
X95460836Y-111387454D01*
X95281118Y-111329059D01*
X95094486Y-111299500D01*
X95094481Y-111299500D01*
X94905519Y-111299500D01*
X94905514Y-111299500D01*
X94718881Y-111329059D01*
X94539163Y-111387454D01*
X94370800Y-111473240D01*
X94344117Y-111492627D01*
X94217927Y-111584310D01*
X94217925Y-111584312D01*
X94217924Y-111584312D01*
X94084312Y-111717924D01*
X94081146Y-111721632D01*
X94080367Y-111720966D01*
X94028975Y-111760586D01*
X93959361Y-111766557D01*
X93897570Y-111733944D01*
X93863219Y-111673102D01*
X93860000Y-111645030D01*
X93860000Y-111552172D01*
X93859999Y-111552155D01*
X93853598Y-111492627D01*
X93853596Y-111492620D01*
X93803354Y-111357913D01*
X93803350Y-111357906D01*
X93717190Y-111242812D01*
X93717187Y-111242809D01*
X93602093Y-111156649D01*
X93602086Y-111156645D01*
X93467379Y-111106403D01*
X93467372Y-111106401D01*
X93407844Y-111100000D01*
X92710000Y-111100000D01*
X92710000Y-112124722D01*
X92633694Y-112080667D01*
X92519244Y-112050000D01*
X92400756Y-112050000D01*
X92286306Y-112080667D01*
X92210000Y-112124722D01*
X92210000Y-111100000D01*
X91512155Y-111100000D01*
X91452627Y-111106401D01*
X91452620Y-111106403D01*
X91317913Y-111156645D01*
X91317906Y-111156649D01*
X91202812Y-111242809D01*
X91202809Y-111242812D01*
X91116649Y-111357906D01*
X91116645Y-111357913D01*
X91066403Y-111492620D01*
X91066401Y-111492627D01*
X91060000Y-111552155D01*
X88650246Y-111552155D01*
X88650500Y-111550551D01*
X88650500Y-111369448D01*
X88622773Y-111194394D01*
X88622171Y-111190591D01*
X88573242Y-111040000D01*
X88566212Y-111018363D01*
X88566211Y-111018360D01*
X88528314Y-110943984D01*
X88483996Y-110857006D01*
X88384398Y-110719920D01*
X88377558Y-110710505D01*
X88377554Y-110710500D01*
X88249499Y-110582445D01*
X88249494Y-110582441D01*
X88102997Y-110476006D01*
X88102996Y-110476005D01*
X88102994Y-110476004D01*
X88051300Y-110449664D01*
X87941639Y-110393788D01*
X87941636Y-110393787D01*
X87769410Y-110337829D01*
X87609321Y-110312473D01*
X87546186Y-110282544D01*
X87509255Y-110223232D01*
X87510253Y-110153370D01*
X87548863Y-110095137D01*
X87609321Y-110067527D01*
X87679425Y-110056422D01*
X87769409Y-110042171D01*
X87941639Y-109986211D01*
X88102994Y-109903996D01*
X88249501Y-109797553D01*
X88377553Y-109669501D01*
X88483996Y-109522994D01*
X88566211Y-109361639D01*
X88622171Y-109189409D01*
X88636765Y-109097259D01*
X88650500Y-109010551D01*
X88650500Y-108829448D01*
X88634019Y-108725397D01*
X88622171Y-108650591D01*
X88566211Y-108478361D01*
X88566211Y-108478360D01*
X88526021Y-108399484D01*
X88483996Y-108317006D01*
X88470396Y-108298287D01*
X88377558Y-108170505D01*
X88377554Y-108170500D01*
X88249499Y-108042445D01*
X88249494Y-108042441D01*
X88102997Y-107936006D01*
X88102996Y-107936005D01*
X88102994Y-107936004D01*
X88051300Y-107909664D01*
X87941639Y-107853788D01*
X87941636Y-107853787D01*
X87769410Y-107797829D01*
X87609321Y-107772473D01*
X87546186Y-107742544D01*
X87509255Y-107683232D01*
X87510253Y-107613370D01*
X87548863Y-107555137D01*
X87609321Y-107527527D01*
X87679425Y-107516422D01*
X87769409Y-107502171D01*
X87941639Y-107446211D01*
X88102994Y-107363996D01*
X88249501Y-107257553D01*
X88377553Y-107129501D01*
X88483996Y-106982994D01*
X88566211Y-106821639D01*
X88622171Y-106649409D01*
X88636765Y-106557259D01*
X88650500Y-106470551D01*
X88650500Y-106289448D01*
X88634019Y-106185397D01*
X88622171Y-106110591D01*
X88566211Y-105938361D01*
X88566211Y-105938360D01*
X88526021Y-105859484D01*
X88483996Y-105777006D01*
X88470396Y-105758287D01*
X88377558Y-105630505D01*
X88377554Y-105630500D01*
X88249499Y-105502445D01*
X88249494Y-105502441D01*
X88102997Y-105396006D01*
X88102996Y-105396005D01*
X88102994Y-105396004D01*
X88051300Y-105369664D01*
X87941639Y-105313788D01*
X87941636Y-105313787D01*
X87769410Y-105257829D01*
X87609321Y-105232473D01*
X87546186Y-105202544D01*
X87509255Y-105143232D01*
X87510253Y-105073370D01*
X87548863Y-105015137D01*
X87609321Y-104987527D01*
X87679425Y-104976422D01*
X87769409Y-104962171D01*
X87941639Y-104906211D01*
X88102994Y-104823996D01*
X88249501Y-104717553D01*
X88377553Y-104589501D01*
X88483996Y-104442994D01*
X88566211Y-104281639D01*
X88622171Y-104109409D01*
X88636765Y-104017259D01*
X88650500Y-103930551D01*
X88650500Y-103749448D01*
X88628816Y-103612545D01*
X88622171Y-103570591D01*
X88574084Y-103422591D01*
X88566212Y-103398363D01*
X88566211Y-103398360D01*
X88537740Y-103342484D01*
X88483996Y-103237006D01*
X88405670Y-103129199D01*
X88377558Y-103090505D01*
X88377554Y-103090500D01*
X88249499Y-102962445D01*
X88249494Y-102962441D01*
X88102997Y-102856006D01*
X88102996Y-102856005D01*
X88102994Y-102856004D01*
X88010984Y-102809122D01*
X88010983Y-102809121D01*
X87941644Y-102773790D01*
X87941636Y-102773787D01*
X87769410Y-102717829D01*
X87609321Y-102692473D01*
X87546186Y-102662544D01*
X87509255Y-102603232D01*
X87510253Y-102533370D01*
X87548863Y-102475137D01*
X87609321Y-102447527D01*
X87679425Y-102436422D01*
X87769409Y-102422171D01*
X87941639Y-102366211D01*
X88102994Y-102283996D01*
X88249501Y-102177553D01*
X88377553Y-102049501D01*
X88483996Y-101902994D01*
X88566211Y-101741639D01*
X88622171Y-101569409D01*
X88624904Y-101552155D01*
X91060000Y-101552155D01*
X91060000Y-102250000D01*
X92084722Y-102250000D01*
X92040667Y-102326306D01*
X92010000Y-102440756D01*
X92010000Y-102559244D01*
X92040667Y-102673694D01*
X92084722Y-102750000D01*
X91060000Y-102750000D01*
X91060000Y-103447844D01*
X91066401Y-103507372D01*
X91066403Y-103507379D01*
X91116645Y-103642086D01*
X91116649Y-103642093D01*
X91202809Y-103757187D01*
X91202812Y-103757190D01*
X91317906Y-103843350D01*
X91317913Y-103843354D01*
X91452620Y-103893596D01*
X91452627Y-103893598D01*
X91512155Y-103899999D01*
X91512172Y-103900000D01*
X92210000Y-103900000D01*
X92210000Y-102875277D01*
X92286306Y-102919333D01*
X92400756Y-102950000D01*
X92519244Y-102950000D01*
X92633694Y-102919333D01*
X92710000Y-102875277D01*
X92710000Y-103900000D01*
X93407828Y-103900000D01*
X93407844Y-103899999D01*
X93467372Y-103893598D01*
X93467379Y-103893596D01*
X93602086Y-103843354D01*
X93602093Y-103843350D01*
X93717187Y-103757190D01*
X93717190Y-103757187D01*
X93803350Y-103642093D01*
X93803354Y-103642086D01*
X93853596Y-103507379D01*
X93853598Y-103507372D01*
X93859999Y-103447844D01*
X93860000Y-103447827D01*
X93860000Y-103354969D01*
X93879685Y-103287930D01*
X93932489Y-103242175D01*
X94001647Y-103232231D01*
X94065203Y-103261256D01*
X94081012Y-103278481D01*
X94081146Y-103278368D01*
X94084308Y-103282070D01*
X94084310Y-103282073D01*
X94217927Y-103415690D01*
X94370801Y-103526760D01*
X94450347Y-103567290D01*
X94539163Y-103612545D01*
X94539165Y-103612545D01*
X94539168Y-103612547D01*
X94630079Y-103642086D01*
X94718881Y-103670940D01*
X94905514Y-103700500D01*
X94905519Y-103700500D01*
X95094486Y-103700500D01*
X95281118Y-103670940D01*
X95460832Y-103612547D01*
X95629199Y-103526760D01*
X95782073Y-103415690D01*
X95915690Y-103282073D01*
X96026760Y-103129199D01*
X96112547Y-102960832D01*
X96170940Y-102781118D01*
X96185451Y-102689500D01*
X96200500Y-102594486D01*
X96200500Y-102405513D01*
X96170940Y-102218881D01*
X96126031Y-102080667D01*
X96112547Y-102039168D01*
X96112545Y-102039165D01*
X96112545Y-102039163D01*
X96067290Y-101950347D01*
X96026760Y-101870801D01*
X95915690Y-101717927D01*
X95782073Y-101584310D01*
X95629199Y-101473240D01*
X95460836Y-101387454D01*
X95281118Y-101329059D01*
X95094486Y-101299500D01*
X95094481Y-101299500D01*
X94905519Y-101299500D01*
X94905514Y-101299500D01*
X94718881Y-101329059D01*
X94539163Y-101387454D01*
X94370800Y-101473240D01*
X94293432Y-101529452D01*
X94217927Y-101584310D01*
X94217925Y-101584312D01*
X94217924Y-101584312D01*
X94084312Y-101717924D01*
X94081146Y-101721632D01*
X94080367Y-101720966D01*
X94028975Y-101760586D01*
X93959361Y-101766557D01*
X93897570Y-101733944D01*
X93863219Y-101673102D01*
X93860000Y-101645030D01*
X93860000Y-101552172D01*
X93859999Y-101552155D01*
X93853598Y-101492627D01*
X93853596Y-101492620D01*
X93803354Y-101357913D01*
X93803350Y-101357906D01*
X93717190Y-101242812D01*
X93717187Y-101242809D01*
X93602093Y-101156649D01*
X93602086Y-101156645D01*
X93467379Y-101106403D01*
X93467372Y-101106401D01*
X93407844Y-101100000D01*
X92710000Y-101100000D01*
X92710000Y-102124722D01*
X92633694Y-102080667D01*
X92519244Y-102050000D01*
X92400756Y-102050000D01*
X92286306Y-102080667D01*
X92210000Y-102124722D01*
X92210000Y-101100000D01*
X91512155Y-101100000D01*
X91452627Y-101106401D01*
X91452620Y-101106403D01*
X91317913Y-101156645D01*
X91317906Y-101156649D01*
X91202812Y-101242809D01*
X91202809Y-101242812D01*
X91116649Y-101357906D01*
X91116645Y-101357913D01*
X91066403Y-101492620D01*
X91066401Y-101492627D01*
X91060000Y-101552155D01*
X88624904Y-101552155D01*
X88634332Y-101492627D01*
X88650500Y-101390551D01*
X88650500Y-101209448D01*
X88633164Y-101100000D01*
X88622171Y-101030591D01*
X88566211Y-100858361D01*
X88566211Y-100858360D01*
X88537740Y-100802484D01*
X88483996Y-100697006D01*
X88470396Y-100678287D01*
X88377558Y-100550505D01*
X88377554Y-100550500D01*
X88249499Y-100422445D01*
X88249494Y-100422441D01*
X88102997Y-100316006D01*
X88102996Y-100316005D01*
X88102994Y-100316004D01*
X88051300Y-100289664D01*
X87941639Y-100233788D01*
X87941636Y-100233787D01*
X87769410Y-100177829D01*
X87609321Y-100152473D01*
X87546186Y-100122544D01*
X87509255Y-100063232D01*
X87510253Y-99993370D01*
X87548863Y-99935137D01*
X87609321Y-99907527D01*
X87679425Y-99896422D01*
X87769409Y-99882171D01*
X87941639Y-99826211D01*
X88102994Y-99743996D01*
X88249501Y-99637553D01*
X88377553Y-99509501D01*
X88483996Y-99362994D01*
X88566211Y-99201639D01*
X88622171Y-99029409D01*
X88636765Y-98937259D01*
X88650500Y-98850551D01*
X88650500Y-98669448D01*
X88634019Y-98565397D01*
X88622171Y-98490591D01*
X88566211Y-98318361D01*
X88566211Y-98318360D01*
X88536474Y-98260000D01*
X88483996Y-98157006D01*
X88415116Y-98062200D01*
X88377558Y-98010505D01*
X88377554Y-98010500D01*
X88249499Y-97882445D01*
X88249494Y-97882441D01*
X88102997Y-97776006D01*
X88102996Y-97776005D01*
X88102994Y-97776004D01*
X88051300Y-97749664D01*
X87941639Y-97693788D01*
X87941636Y-97693787D01*
X87769410Y-97637829D01*
X87609321Y-97612473D01*
X87546186Y-97582544D01*
X87509255Y-97523232D01*
X87510253Y-97453370D01*
X87548863Y-97395137D01*
X87609321Y-97367527D01*
X87679425Y-97356422D01*
X87769409Y-97342171D01*
X87941639Y-97286211D01*
X88102994Y-97203996D01*
X88249501Y-97097553D01*
X88377553Y-96969501D01*
X88483996Y-96822994D01*
X88566211Y-96661639D01*
X88622171Y-96489409D01*
X88636765Y-96397259D01*
X88650500Y-96310551D01*
X88650500Y-96129448D01*
X88629452Y-95996561D01*
X88622171Y-95950591D01*
X88566211Y-95778361D01*
X88566211Y-95778360D01*
X88537740Y-95722484D01*
X88483996Y-95617006D01*
X88385389Y-95481284D01*
X88377558Y-95470505D01*
X88377554Y-95470500D01*
X88249499Y-95342445D01*
X88249494Y-95342441D01*
X88102997Y-95236006D01*
X88102996Y-95236005D01*
X88102994Y-95236004D01*
X88051300Y-95209664D01*
X87941639Y-95153788D01*
X87941636Y-95153787D01*
X87769410Y-95097829D01*
X87609321Y-95072473D01*
X87546186Y-95042544D01*
X87509255Y-94983232D01*
X87510253Y-94913370D01*
X87548863Y-94855137D01*
X87609321Y-94827527D01*
X87679425Y-94816422D01*
X87769409Y-94802171D01*
X87941639Y-94746211D01*
X88102994Y-94663996D01*
X88249501Y-94557553D01*
X88377553Y-94429501D01*
X88483996Y-94282994D01*
X88566211Y-94121639D01*
X88622171Y-93949409D01*
X88627876Y-93913389D01*
X91899500Y-93913389D01*
X91899500Y-94086610D01*
X91926597Y-94257697D01*
X91926597Y-94257699D01*
X91926598Y-94257701D01*
X91980127Y-94422445D01*
X92058768Y-94576788D01*
X92160586Y-94716928D01*
X92283072Y-94839414D01*
X92423212Y-94941232D01*
X92577555Y-95019873D01*
X92742299Y-95073402D01*
X92913389Y-95100500D01*
X92913390Y-95100500D01*
X93086610Y-95100500D01*
X93086611Y-95100500D01*
X93257701Y-95073402D01*
X93422445Y-95019873D01*
X93576788Y-94941232D01*
X93716928Y-94839414D01*
X93839414Y-94716928D01*
X93941232Y-94576788D01*
X94019873Y-94422445D01*
X94073402Y-94257701D01*
X94100500Y-94086611D01*
X94100500Y-93913389D01*
X94073402Y-93742299D01*
X94019873Y-93577555D01*
X93941232Y-93423212D01*
X93839414Y-93283072D01*
X93716928Y-93160586D01*
X93576788Y-93058768D01*
X93422445Y-92980127D01*
X93257701Y-92926598D01*
X93257699Y-92926597D01*
X93257698Y-92926597D01*
X93126271Y-92905781D01*
X93086611Y-92899500D01*
X92913389Y-92899500D01*
X92873728Y-92905781D01*
X92742302Y-92926597D01*
X92577552Y-92980128D01*
X92423211Y-93058768D01*
X92370078Y-93097372D01*
X92283072Y-93160586D01*
X92283070Y-93160588D01*
X92283069Y-93160588D01*
X92160588Y-93283069D01*
X92160588Y-93283070D01*
X92160586Y-93283072D01*
X92116859Y-93343256D01*
X92058768Y-93423211D01*
X91980128Y-93577552D01*
X91980127Y-93577554D01*
X91980127Y-93577555D01*
X91974249Y-93595647D01*
X91926597Y-93742302D01*
X91899500Y-93913389D01*
X88627876Y-93913389D01*
X88638001Y-93849465D01*
X88650500Y-93770550D01*
X88650500Y-93589448D01*
X88633085Y-93479500D01*
X88622171Y-93410591D01*
X88566211Y-93238361D01*
X88566211Y-93238360D01*
X88526582Y-93160586D01*
X88483996Y-93077006D01*
X88470396Y-93058287D01*
X88377558Y-92930505D01*
X88377554Y-92930500D01*
X88249499Y-92802445D01*
X88249494Y-92802441D01*
X88102997Y-92696006D01*
X88102996Y-92696005D01*
X88102994Y-92696004D01*
X88051300Y-92669664D01*
X87941639Y-92613788D01*
X87941636Y-92613787D01*
X87769410Y-92557829D01*
X87609321Y-92532473D01*
X87546186Y-92502544D01*
X87509255Y-92443232D01*
X87510253Y-92373370D01*
X87548863Y-92315137D01*
X87609321Y-92287527D01*
X87679425Y-92276422D01*
X87769409Y-92262171D01*
X87941639Y-92206211D01*
X88102994Y-92123996D01*
X88249501Y-92017553D01*
X88377553Y-91889501D01*
X88483996Y-91742994D01*
X88566211Y-91581639D01*
X88622171Y-91409409D01*
X88638622Y-91305543D01*
X88650500Y-91230551D01*
X88650500Y-91130131D01*
X106374500Y-91130131D01*
X106374500Y-92869856D01*
X106374502Y-92869882D01*
X106377413Y-92894987D01*
X106377415Y-92894991D01*
X106422793Y-92997764D01*
X106422794Y-92997765D01*
X106502235Y-93077206D01*
X106605009Y-93122585D01*
X106630135Y-93125500D01*
X108369864Y-93125499D01*
X108369879Y-93125497D01*
X108369882Y-93125497D01*
X108394987Y-93122586D01*
X108394988Y-93122585D01*
X108394991Y-93122585D01*
X108497765Y-93077206D01*
X108577206Y-92997765D01*
X108622585Y-92894991D01*
X108625500Y-92869865D01*
X108625499Y-91895720D01*
X111175000Y-91895720D01*
X111175000Y-92104279D01*
X111207626Y-92310272D01*
X111272075Y-92508627D01*
X111366759Y-92694451D01*
X111402627Y-92743818D01*
X111402627Y-92743819D01*
X111976212Y-92170234D01*
X111987482Y-92212292D01*
X112059890Y-92337708D01*
X112162292Y-92440110D01*
X112287708Y-92512518D01*
X112329765Y-92523787D01*
X111756179Y-93097371D01*
X111756180Y-93097372D01*
X111805543Y-93133236D01*
X111805556Y-93133244D01*
X111991372Y-93227924D01*
X112189727Y-93292373D01*
X112395721Y-93325000D01*
X112604279Y-93325000D01*
X112810272Y-93292373D01*
X113008627Y-93227924D01*
X113194451Y-93133240D01*
X113243818Y-93097372D01*
X113243818Y-93097371D01*
X112670234Y-92523787D01*
X112712292Y-92512518D01*
X112837708Y-92440110D01*
X112940110Y-92337708D01*
X113012518Y-92212292D01*
X113023787Y-92170234D01*
X113597371Y-92743818D01*
X113597372Y-92743818D01*
X113633240Y-92694451D01*
X113727924Y-92508627D01*
X113792373Y-92310272D01*
X113825000Y-92104279D01*
X113825000Y-91895720D01*
X113792373Y-91689727D01*
X113727924Y-91491372D01*
X113633244Y-91305556D01*
X113633236Y-91305543D01*
X113597372Y-91256180D01*
X113597371Y-91256179D01*
X113023787Y-91829764D01*
X113012518Y-91787708D01*
X112940110Y-91662292D01*
X112837708Y-91559890D01*
X112712292Y-91487482D01*
X112670233Y-91476212D01*
X113243819Y-90902627D01*
X113194451Y-90866759D01*
X113008627Y-90772075D01*
X112810272Y-90707626D01*
X112604279Y-90675000D01*
X112395721Y-90675000D01*
X112189727Y-90707626D01*
X111991372Y-90772075D01*
X111805552Y-90866757D01*
X111756180Y-90902627D01*
X112329766Y-91476212D01*
X112287708Y-91487482D01*
X112162292Y-91559890D01*
X112059890Y-91662292D01*
X111987482Y-91787708D01*
X111976212Y-91829765D01*
X111402627Y-91256180D01*
X111366757Y-91305552D01*
X111272075Y-91491372D01*
X111207626Y-91689727D01*
X111175000Y-91895720D01*
X108625499Y-91895720D01*
X108625499Y-91130136D01*
X108625497Y-91130117D01*
X108622586Y-91105012D01*
X108622585Y-91105010D01*
X108622585Y-91105009D01*
X108577206Y-91002235D01*
X108497765Y-90922794D01*
X108452091Y-90902627D01*
X108394992Y-90877415D01*
X108369865Y-90874500D01*
X106630143Y-90874500D01*
X106630117Y-90874502D01*
X106605012Y-90877413D01*
X106605008Y-90877415D01*
X106502235Y-90922793D01*
X106422794Y-91002234D01*
X106377415Y-91105006D01*
X106377415Y-91105008D01*
X106374500Y-91130131D01*
X88650500Y-91130131D01*
X88650500Y-91049448D01*
X88627245Y-90902627D01*
X88622171Y-90870591D01*
X88590162Y-90772075D01*
X88566212Y-90698363D01*
X88566211Y-90698360D01*
X88537740Y-90642484D01*
X88483996Y-90537006D01*
X88470396Y-90518287D01*
X88377558Y-90390505D01*
X88377554Y-90390500D01*
X88249499Y-90262445D01*
X88249494Y-90262441D01*
X88102997Y-90156006D01*
X88102996Y-90156005D01*
X88102994Y-90156004D01*
X88051300Y-90129664D01*
X87941639Y-90073788D01*
X87941636Y-90073787D01*
X87769410Y-90017829D01*
X87609321Y-89992473D01*
X87546186Y-89962544D01*
X87509255Y-89903232D01*
X87510253Y-89833370D01*
X87548863Y-89775137D01*
X87609321Y-89747527D01*
X87679425Y-89736422D01*
X87769409Y-89722171D01*
X87941639Y-89666211D01*
X88102994Y-89583996D01*
X88249501Y-89477553D01*
X88377553Y-89349501D01*
X88483996Y-89202994D01*
X88566211Y-89041639D01*
X88566212Y-89041636D01*
X88607882Y-88913389D01*
X91899500Y-88913389D01*
X91899500Y-89086611D01*
X91926598Y-89257701D01*
X91980127Y-89422445D01*
X92058768Y-89576788D01*
X92160586Y-89716928D01*
X92283072Y-89839414D01*
X92423212Y-89941232D01*
X92577555Y-90019873D01*
X92742299Y-90073402D01*
X92913389Y-90100500D01*
X92913390Y-90100500D01*
X93086610Y-90100500D01*
X93086611Y-90100500D01*
X93257701Y-90073402D01*
X93422445Y-90019873D01*
X93576788Y-89941232D01*
X93716928Y-89839414D01*
X93839414Y-89716928D01*
X93941232Y-89576788D01*
X94019873Y-89422445D01*
X94073402Y-89257701D01*
X94100500Y-89086611D01*
X94100500Y-88913389D01*
X99519500Y-88913389D01*
X99519500Y-89086611D01*
X99546598Y-89257701D01*
X99600127Y-89422445D01*
X99678768Y-89576788D01*
X99780586Y-89716928D01*
X99903072Y-89839414D01*
X100043212Y-89941232D01*
X100197555Y-90019873D01*
X100362299Y-90073402D01*
X100533389Y-90100500D01*
X100533390Y-90100500D01*
X100706610Y-90100500D01*
X100706611Y-90100500D01*
X100877701Y-90073402D01*
X101042445Y-90019873D01*
X101196788Y-89941232D01*
X101336928Y-89839414D01*
X101459414Y-89716928D01*
X101561232Y-89576788D01*
X101639873Y-89422445D01*
X101693402Y-89257701D01*
X101720500Y-89086611D01*
X101720500Y-88913389D01*
X101693402Y-88742299D01*
X101639873Y-88577555D01*
X101561232Y-88423212D01*
X101459414Y-88283072D01*
X101336928Y-88160586D01*
X101196788Y-88058768D01*
X101042445Y-87980127D01*
X100877701Y-87926598D01*
X100877699Y-87926597D01*
X100877698Y-87926597D01*
X100746271Y-87905781D01*
X100706611Y-87899500D01*
X100533389Y-87899500D01*
X100493728Y-87905781D01*
X100362302Y-87926597D01*
X100197552Y-87980128D01*
X100043211Y-88058768D01*
X99963256Y-88116859D01*
X99903072Y-88160586D01*
X99903070Y-88160588D01*
X99903069Y-88160588D01*
X99780588Y-88283069D01*
X99780588Y-88283070D01*
X99780586Y-88283072D01*
X99746063Y-88330589D01*
X99678768Y-88423211D01*
X99600128Y-88577552D01*
X99546597Y-88742302D01*
X99519500Y-88913389D01*
X94100500Y-88913389D01*
X94073402Y-88742299D01*
X94019873Y-88577555D01*
X93941232Y-88423212D01*
X93839414Y-88283072D01*
X93716928Y-88160586D01*
X93576788Y-88058768D01*
X93422445Y-87980127D01*
X93257701Y-87926598D01*
X93257699Y-87926597D01*
X93257698Y-87926597D01*
X93126271Y-87905781D01*
X93086611Y-87899500D01*
X92913389Y-87899500D01*
X92873728Y-87905781D01*
X92742302Y-87926597D01*
X92577552Y-87980128D01*
X92423211Y-88058768D01*
X92343256Y-88116859D01*
X92283072Y-88160586D01*
X92283070Y-88160588D01*
X92283069Y-88160588D01*
X92160588Y-88283069D01*
X92160588Y-88283070D01*
X92160586Y-88283072D01*
X92126063Y-88330589D01*
X92058768Y-88423211D01*
X91980128Y-88577552D01*
X91926597Y-88742302D01*
X91899500Y-88913389D01*
X88607882Y-88913389D01*
X88621915Y-88870199D01*
X88621915Y-88870198D01*
X88622170Y-88869414D01*
X88622170Y-88869412D01*
X88622169Y-88869412D01*
X88622171Y-88869409D01*
X88642303Y-88742302D01*
X88650500Y-88690551D01*
X88650500Y-88509448D01*
X88634019Y-88405397D01*
X88622171Y-88330591D01*
X88566211Y-88158361D01*
X88566211Y-88158360D01*
X88537740Y-88102484D01*
X88483996Y-87997006D01*
X88432841Y-87926597D01*
X88377558Y-87850505D01*
X88377554Y-87850500D01*
X88249499Y-87722445D01*
X88249494Y-87722441D01*
X88102997Y-87616006D01*
X88102996Y-87616005D01*
X88102994Y-87616004D01*
X88051300Y-87589664D01*
X87941639Y-87533788D01*
X87941636Y-87533787D01*
X87769410Y-87477829D01*
X87609321Y-87452473D01*
X87546186Y-87422544D01*
X87509255Y-87363232D01*
X87510253Y-87293370D01*
X87548863Y-87235137D01*
X87609321Y-87207527D01*
X87679425Y-87196422D01*
X87769409Y-87182171D01*
X87941639Y-87126211D01*
X88102994Y-87043996D01*
X88249501Y-86937553D01*
X88377553Y-86809501D01*
X88483996Y-86662994D01*
X88566211Y-86501639D01*
X88622171Y-86329409D01*
X88636765Y-86237259D01*
X88650500Y-86150551D01*
X88650500Y-85969448D01*
X88634019Y-85865397D01*
X88622171Y-85790591D01*
X88566211Y-85618361D01*
X88566211Y-85618360D01*
X88537740Y-85562484D01*
X88483996Y-85457006D01*
X88470396Y-85438287D01*
X88377558Y-85310505D01*
X88377554Y-85310500D01*
X88249499Y-85182445D01*
X88249494Y-85182441D01*
X88102997Y-85076006D01*
X88102996Y-85076005D01*
X88102994Y-85076004D01*
X88051300Y-85049664D01*
X87941639Y-84993788D01*
X87941636Y-84993787D01*
X87769410Y-84937829D01*
X87609321Y-84912473D01*
X87546186Y-84882544D01*
X87509255Y-84823232D01*
X87510253Y-84753370D01*
X87548863Y-84695137D01*
X87609321Y-84667527D01*
X87679425Y-84656422D01*
X87769409Y-84642171D01*
X87941639Y-84586211D01*
X88102994Y-84503996D01*
X88249501Y-84397553D01*
X88377553Y-84269501D01*
X88483996Y-84122994D01*
X88566211Y-83961639D01*
X88622171Y-83789409D01*
X88639592Y-83679415D01*
X88650500Y-83610551D01*
X88650500Y-83429448D01*
X88634019Y-83325397D01*
X88622171Y-83250591D01*
X88584944Y-83136015D01*
X88566212Y-83078363D01*
X88566211Y-83078360D01*
X88529552Y-83006414D01*
X88483996Y-82917006D01*
X88394914Y-82794394D01*
X88377558Y-82770505D01*
X88377554Y-82770500D01*
X88249499Y-82642445D01*
X88249494Y-82642441D01*
X88102997Y-82536006D01*
X88102996Y-82536005D01*
X88102994Y-82536004D01*
X88051300Y-82509664D01*
X87941639Y-82453788D01*
X87941636Y-82453787D01*
X87769410Y-82397829D01*
X87609321Y-82372473D01*
X87546186Y-82342544D01*
X87509255Y-82283232D01*
X87510253Y-82213370D01*
X87548863Y-82155137D01*
X87609321Y-82127527D01*
X87679425Y-82116422D01*
X87769409Y-82102171D01*
X87941639Y-82046211D01*
X88102994Y-81963996D01*
X88249501Y-81857553D01*
X88377553Y-81729501D01*
X88483996Y-81582994D01*
X88566211Y-81421639D01*
X88622171Y-81249409D01*
X88637832Y-81150530D01*
X88650500Y-81070551D01*
X88650500Y-80889448D01*
X88634019Y-80785397D01*
X88622171Y-80710591D01*
X88586405Y-80600512D01*
X88566212Y-80538363D01*
X88566211Y-80538360D01*
X88537740Y-80482484D01*
X88483996Y-80377006D01*
X88422507Y-80292373D01*
X88377558Y-80230505D01*
X88377554Y-80230500D01*
X88249499Y-80102445D01*
X88249494Y-80102441D01*
X88102995Y-79996004D01*
X87971314Y-79928908D01*
X87920519Y-79880934D01*
X87903724Y-79813113D01*
X87926262Y-79746978D01*
X87980977Y-79703527D01*
X87989295Y-79700492D01*
X88018217Y-79691095D01*
X88207554Y-79594622D01*
X88261716Y-79555270D01*
X88261717Y-79555270D01*
X87629408Y-78922962D01*
X87692993Y-78905925D01*
X87807007Y-78840099D01*
X87900099Y-78747007D01*
X87965925Y-78632993D01*
X87982962Y-78569408D01*
X88615270Y-79201717D01*
X88615270Y-79201716D01*
X88654622Y-79147554D01*
X88751095Y-78958217D01*
X88765661Y-78913389D01*
X91899500Y-78913389D01*
X91899500Y-79086611D01*
X91926598Y-79257701D01*
X91980127Y-79422445D01*
X92058768Y-79576788D01*
X92160586Y-79716928D01*
X92283072Y-79839414D01*
X92423212Y-79941232D01*
X92431793Y-79945604D01*
X92482589Y-79993575D01*
X92499500Y-80056089D01*
X92499500Y-82943909D01*
X92479815Y-83010948D01*
X92431801Y-83054391D01*
X92423212Y-83058767D01*
X92376562Y-83092661D01*
X92283072Y-83160586D01*
X92283070Y-83160588D01*
X92283069Y-83160588D01*
X92160588Y-83283069D01*
X92160588Y-83283070D01*
X92160586Y-83283072D01*
X92116859Y-83343256D01*
X92058768Y-83423211D01*
X91980128Y-83577552D01*
X91980127Y-83577554D01*
X91980127Y-83577555D01*
X91969406Y-83610551D01*
X91926597Y-83742302D01*
X91919136Y-83789410D01*
X91899500Y-83913389D01*
X91899500Y-84086611D01*
X91926598Y-84257701D01*
X91980127Y-84422445D01*
X92058768Y-84576788D01*
X92160586Y-84716928D01*
X92283072Y-84839414D01*
X92423212Y-84941232D01*
X92577555Y-85019873D01*
X92742299Y-85073402D01*
X92913389Y-85100500D01*
X92913390Y-85100500D01*
X93086610Y-85100500D01*
X93086611Y-85100500D01*
X93257701Y-85073402D01*
X93422445Y-85019873D01*
X93576788Y-84941232D01*
X93716928Y-84839414D01*
X93839414Y-84716928D01*
X93941232Y-84576788D01*
X94019873Y-84422445D01*
X94073402Y-84257701D01*
X94100500Y-84086611D01*
X94100500Y-83913389D01*
X99519500Y-83913389D01*
X99519500Y-84086611D01*
X99546598Y-84257701D01*
X99600127Y-84422445D01*
X99678768Y-84576788D01*
X99780586Y-84716928D01*
X99903072Y-84839414D01*
X100043212Y-84941232D01*
X100197555Y-85019873D01*
X100362299Y-85073402D01*
X100533389Y-85100500D01*
X100533390Y-85100500D01*
X100706610Y-85100500D01*
X100706611Y-85100500D01*
X100877701Y-85073402D01*
X101042445Y-85019873D01*
X101196788Y-84941232D01*
X101336928Y-84839414D01*
X101459414Y-84716928D01*
X101561232Y-84576788D01*
X101639873Y-84422445D01*
X101693402Y-84257701D01*
X101720500Y-84086611D01*
X101720500Y-83913389D01*
X101693402Y-83742299D01*
X101639873Y-83577555D01*
X101561232Y-83423212D01*
X101459414Y-83283072D01*
X101336928Y-83160586D01*
X101196788Y-83058768D01*
X101094037Y-83006414D01*
X101042447Y-82980128D01*
X101042446Y-82980127D01*
X101042445Y-82980127D01*
X100877701Y-82926598D01*
X100877699Y-82926597D01*
X100877698Y-82926597D01*
X100746271Y-82905781D01*
X100706611Y-82899500D01*
X100533389Y-82899500D01*
X100493728Y-82905781D01*
X100362302Y-82926597D01*
X100197552Y-82980128D01*
X100043211Y-83058768D01*
X99996562Y-83092661D01*
X99903072Y-83160586D01*
X99903070Y-83160588D01*
X99903069Y-83160588D01*
X99780588Y-83283069D01*
X99780588Y-83283070D01*
X99780586Y-83283072D01*
X99736859Y-83343256D01*
X99678768Y-83423211D01*
X99600128Y-83577552D01*
X99600127Y-83577554D01*
X99600127Y-83577555D01*
X99589406Y-83610551D01*
X99546597Y-83742302D01*
X99539136Y-83789410D01*
X99519500Y-83913389D01*
X94100500Y-83913389D01*
X94073402Y-83742299D01*
X94019873Y-83577555D01*
X93941232Y-83423212D01*
X93839414Y-83283072D01*
X93716928Y-83160586D01*
X93603758Y-83078363D01*
X93576787Y-83058767D01*
X93568199Y-83054391D01*
X93517406Y-83006414D01*
X93500500Y-82943909D01*
X93500500Y-80056089D01*
X93520185Y-79989050D01*
X93568206Y-79945604D01*
X93576788Y-79941232D01*
X93716928Y-79839414D01*
X93839414Y-79716928D01*
X93941232Y-79576788D01*
X94019873Y-79422445D01*
X94073402Y-79257701D01*
X94100500Y-79086611D01*
X94100500Y-78913389D01*
X99519500Y-78913389D01*
X99519500Y-79086611D01*
X99546598Y-79257701D01*
X99600127Y-79422445D01*
X99678768Y-79576788D01*
X99780586Y-79716928D01*
X99903072Y-79839414D01*
X100043212Y-79941232D01*
X100197555Y-80019873D01*
X100362299Y-80073402D01*
X100533389Y-80100500D01*
X100533390Y-80100500D01*
X100706610Y-80100500D01*
X100706611Y-80100500D01*
X100877701Y-80073402D01*
X101042445Y-80019873D01*
X101196788Y-79941232D01*
X101336928Y-79839414D01*
X101459414Y-79716928D01*
X101561232Y-79576788D01*
X101639873Y-79422445D01*
X101693402Y-79257701D01*
X101720500Y-79086611D01*
X101720500Y-78913389D01*
X101693402Y-78742299D01*
X101639873Y-78577555D01*
X101561232Y-78423212D01*
X101459414Y-78283072D01*
X101336928Y-78160586D01*
X101295010Y-78130131D01*
X106374500Y-78130131D01*
X106374500Y-79869856D01*
X106374502Y-79869882D01*
X106377413Y-79894987D01*
X106377415Y-79894991D01*
X106422793Y-79997764D01*
X106422794Y-79997765D01*
X106502235Y-80077206D01*
X106605009Y-80122585D01*
X106630135Y-80125500D01*
X108369864Y-80125499D01*
X108369879Y-80125497D01*
X108369882Y-80125497D01*
X108394987Y-80122586D01*
X108394988Y-80122585D01*
X108394991Y-80122585D01*
X108497765Y-80077206D01*
X108577206Y-79997765D01*
X108622585Y-79894991D01*
X108625500Y-79869865D01*
X108625499Y-78895720D01*
X111175000Y-78895720D01*
X111175000Y-79104279D01*
X111207626Y-79310272D01*
X111272075Y-79508627D01*
X111366759Y-79694451D01*
X111402627Y-79743818D01*
X111402627Y-79743819D01*
X111976212Y-79170234D01*
X111987482Y-79212292D01*
X112059890Y-79337708D01*
X112162292Y-79440110D01*
X112287708Y-79512518D01*
X112329765Y-79523787D01*
X111756179Y-80097371D01*
X111756180Y-80097372D01*
X111805543Y-80133236D01*
X111805556Y-80133244D01*
X111991372Y-80227924D01*
X112189727Y-80292373D01*
X112395721Y-80325000D01*
X112604279Y-80325000D01*
X112810272Y-80292373D01*
X113008627Y-80227924D01*
X113194451Y-80133240D01*
X113243818Y-80097372D01*
X113243818Y-80097371D01*
X112670234Y-79523787D01*
X112712292Y-79512518D01*
X112837708Y-79440110D01*
X112940110Y-79337708D01*
X113012518Y-79212292D01*
X113023787Y-79170234D01*
X113597371Y-79743818D01*
X113597372Y-79743818D01*
X113633240Y-79694451D01*
X113727924Y-79508627D01*
X113792373Y-79310272D01*
X113825000Y-79104279D01*
X113825000Y-78895720D01*
X113792373Y-78689727D01*
X113727924Y-78491372D01*
X113633244Y-78305556D01*
X113633236Y-78305543D01*
X113597372Y-78256180D01*
X113597371Y-78256179D01*
X113023787Y-78829764D01*
X113012518Y-78787708D01*
X112940110Y-78662292D01*
X112837708Y-78559890D01*
X112712292Y-78487482D01*
X112670233Y-78476212D01*
X113243819Y-77902627D01*
X113194451Y-77866759D01*
X113008627Y-77772075D01*
X112810272Y-77707626D01*
X112604279Y-77675000D01*
X112395721Y-77675000D01*
X112189727Y-77707626D01*
X111991372Y-77772075D01*
X111805552Y-77866757D01*
X111756180Y-77902627D01*
X112329766Y-78476212D01*
X112287708Y-78487482D01*
X112162292Y-78559890D01*
X112059890Y-78662292D01*
X111987482Y-78787708D01*
X111976212Y-78829765D01*
X111402627Y-78256180D01*
X111366757Y-78305552D01*
X111272075Y-78491372D01*
X111207626Y-78689727D01*
X111175000Y-78895720D01*
X108625499Y-78895720D01*
X108625499Y-78130136D01*
X108624773Y-78123872D01*
X108622586Y-78105012D01*
X108622585Y-78105010D01*
X108622585Y-78105009D01*
X108577206Y-78002235D01*
X108497765Y-77922794D01*
X108445009Y-77899500D01*
X108394992Y-77877415D01*
X108369865Y-77874500D01*
X106630143Y-77874500D01*
X106630117Y-77874502D01*
X106605012Y-77877413D01*
X106605008Y-77877415D01*
X106502235Y-77922793D01*
X106422794Y-78002234D01*
X106377415Y-78105006D01*
X106377415Y-78105008D01*
X106374500Y-78130131D01*
X101295010Y-78130131D01*
X101196788Y-78058768D01*
X101085833Y-78002234D01*
X101042447Y-77980128D01*
X101042446Y-77980127D01*
X101042445Y-77980127D01*
X100877701Y-77926598D01*
X100877699Y-77926597D01*
X100877698Y-77926597D01*
X100726354Y-77902627D01*
X100706611Y-77899500D01*
X100533389Y-77899500D01*
X100513646Y-77902627D01*
X100362302Y-77926597D01*
X100197552Y-77980128D01*
X100043211Y-78058768D01*
X99979571Y-78105006D01*
X99903072Y-78160586D01*
X99903070Y-78160588D01*
X99903069Y-78160588D01*
X99780588Y-78283069D01*
X99780588Y-78283070D01*
X99780586Y-78283072D01*
X99743764Y-78333753D01*
X99678768Y-78423211D01*
X99600128Y-78577552D01*
X99546597Y-78742302D01*
X99524529Y-78881636D01*
X99519500Y-78913389D01*
X94100500Y-78913389D01*
X94073402Y-78742299D01*
X94019873Y-78577555D01*
X93941232Y-78423212D01*
X93839414Y-78283072D01*
X93716928Y-78160586D01*
X93576788Y-78058768D01*
X93465833Y-78002234D01*
X93422447Y-77980128D01*
X93422446Y-77980127D01*
X93422445Y-77980127D01*
X93257701Y-77926598D01*
X93257699Y-77926597D01*
X93257698Y-77926597D01*
X93106354Y-77902627D01*
X93086611Y-77899500D01*
X92913389Y-77899500D01*
X92893646Y-77902627D01*
X92742302Y-77926597D01*
X92577552Y-77980128D01*
X92423211Y-78058768D01*
X92359571Y-78105006D01*
X92283072Y-78160586D01*
X92283070Y-78160588D01*
X92283069Y-78160588D01*
X92160588Y-78283069D01*
X92160588Y-78283070D01*
X92160586Y-78283072D01*
X92123764Y-78333753D01*
X92058768Y-78423211D01*
X91980128Y-78577552D01*
X91926597Y-78742302D01*
X91904529Y-78881636D01*
X91899500Y-78913389D01*
X88765661Y-78913389D01*
X88779694Y-78870199D01*
X88816757Y-78756130D01*
X88816757Y-78756127D01*
X88850000Y-78546246D01*
X88850000Y-78333753D01*
X88816757Y-78123872D01*
X88816757Y-78123869D01*
X88751095Y-77921782D01*
X88654624Y-77732449D01*
X88615270Y-77678282D01*
X88615269Y-77678282D01*
X87982962Y-78310590D01*
X87965925Y-78247007D01*
X87900099Y-78132993D01*
X87807007Y-78039901D01*
X87692993Y-77974075D01*
X87629409Y-77957037D01*
X88261716Y-77324728D01*
X88207550Y-77285375D01*
X88018217Y-77188904D01*
X87989292Y-77179506D01*
X87931616Y-77140068D01*
X87904418Y-77075710D01*
X87916333Y-77006863D01*
X87963577Y-76955388D01*
X87971315Y-76951090D01*
X88102994Y-76883996D01*
X88249501Y-76777553D01*
X88377553Y-76649501D01*
X88483996Y-76502994D01*
X88566211Y-76341639D01*
X88622171Y-76169409D01*
X88636765Y-76077259D01*
X88650500Y-75990551D01*
X88650500Y-75809448D01*
X88634019Y-75705397D01*
X88622171Y-75630591D01*
X88566211Y-75458361D01*
X88566211Y-75458360D01*
X88537740Y-75402484D01*
X88483996Y-75297006D01*
X88470396Y-75278287D01*
X88377558Y-75150505D01*
X88377554Y-75150500D01*
X88249499Y-75022445D01*
X88249494Y-75022441D01*
X88102997Y-74916006D01*
X88102996Y-74916005D01*
X88102994Y-74916004D01*
X88051300Y-74889664D01*
X87941639Y-74833788D01*
X87941636Y-74833787D01*
X87769410Y-74777829D01*
X87590551Y-74749500D01*
X87590546Y-74749500D01*
X87409454Y-74749500D01*
X87409449Y-74749500D01*
X87230589Y-74777829D01*
X87058363Y-74833787D01*
X87058360Y-74833788D01*
X86897002Y-74916006D01*
X86750505Y-75022441D01*
X86750500Y-75022445D01*
X86622445Y-75150500D01*
X86622441Y-75150505D01*
X86516006Y-75297002D01*
X86433788Y-75458360D01*
X86433787Y-75458363D01*
X86377829Y-75630589D01*
X86349500Y-75809448D01*
X86349500Y-75990551D01*
X86377829Y-76169410D01*
X86433787Y-76341636D01*
X86433788Y-76341639D01*
X86516006Y-76502997D01*
X86622441Y-76649494D01*
X86622445Y-76649499D01*
X86750500Y-76777554D01*
X86750505Y-76777558D01*
X86878287Y-76870396D01*
X86897006Y-76883996D01*
X86998780Y-76935853D01*
X87028684Y-76951090D01*
X87079480Y-76999065D01*
X87096275Y-77066886D01*
X87073737Y-77133021D01*
X87019022Y-77176472D01*
X87010708Y-77179506D01*
X86981781Y-77188905D01*
X86792439Y-77285380D01*
X86738282Y-77324727D01*
X86738282Y-77324728D01*
X87370591Y-77957037D01*
X87307007Y-77974075D01*
X87192993Y-78039901D01*
X87099901Y-78132993D01*
X87034075Y-78247007D01*
X87017037Y-78310591D01*
X86384728Y-77678282D01*
X86384727Y-77678282D01*
X86345380Y-77732439D01*
X86248904Y-77921782D01*
X86183242Y-78123869D01*
X86183242Y-78123872D01*
X86150000Y-78333753D01*
X80909768Y-78333753D01*
X80941283Y-78257669D01*
X80980500Y-78060511D01*
X80980500Y-77859489D01*
X80941283Y-77662331D01*
X80899909Y-77562445D01*
X80864359Y-77476618D01*
X80864352Y-77476605D01*
X80752674Y-77309469D01*
X80752671Y-77309465D01*
X80610534Y-77167328D01*
X80610530Y-77167325D01*
X80443394Y-77055647D01*
X80443381Y-77055640D01*
X80257673Y-76978718D01*
X80257661Y-76978715D01*
X80060515Y-76939500D01*
X80060511Y-76939500D01*
X79859489Y-76939500D01*
X79859484Y-76939500D01*
X79662338Y-76978715D01*
X79662326Y-76978718D01*
X79476618Y-77055640D01*
X79476605Y-77055647D01*
X79309469Y-77167325D01*
X79309465Y-77167328D01*
X79167328Y-77309465D01*
X79167325Y-77309469D01*
X79055647Y-77476605D01*
X79055640Y-77476618D01*
X78978718Y-77662326D01*
X78978715Y-77662338D01*
X78939500Y-77859484D01*
X71000500Y-77859484D01*
X71000500Y-71624500D01*
X71020185Y-71557461D01*
X71072989Y-71511706D01*
X71124500Y-71500500D01*
X123375500Y-71500500D01*
X123442539Y-71520185D01*
G37*
%TD.AperFunction*%
%TD*%
M02*
